<?xml version="1.0" standalone="no"?>
<!DOCTYPE svg PUBLIC "-//W3C//DTD SVG 20010904//EN"
 "http://www.w3.org/TR/2001/REC-SVG-20010904/DTD/svg10.dtd">
<svg version="1.0" xmlns="http://www.w3.org/2000/svg"
 width="300px" height="300px" viewBox="0 0 1349.000000 774.000000"
 preserveAspectRatio="xMidYMid meet">

<g transform="translate(0.000000,774.000000) scale(0.100000,-0.100000)"
fill="#000000" stroke="none">
<path d="M4930 7290 c0 -68 17 -82 22 -17 l3 42 25 -42 c14 -24 28 -43 33 -43
4 0 6 28 5 63 l-1 62 -6 -50 -6 -50 -28 48 c-16 26 -33 47 -38 47 -5 0 -9 -27
-9 -60z"/>
<path d="M5270 7291 c0 -57 1 -59 28 -59 34 0 52 14 52 43 0 27 -24 49 -45 41
-10 -4 -15 1 -15 14 0 11 -4 20 -10 20 -6 0 -10 -26 -10 -59z m59 0 c7 -13 6
-23 -3 -36 -16 -22 -36 -12 -36 19 0 39 22 49 39 17z"/>
<path d="M5648 7333 c-2 -10 -1 -38 3 -63 6 -42 6 -43 7 -9 1 19 7 40 14 47 9
9 9 12 -1 12 -11 0 -11 3 -1 15 10 12 10 15 -3 15 -8 0 -16 -8 -19 -17z"/>
<path d="M5740 7290 l0 -60 38 1 c30 2 32 3 10 6 -38 6 -40 43 -3 43 14 0 25
5 25 10 0 6 -11 10 -25 10 -37 0 -35 37 3 43 22 3 20 4 -10 6 l-38 1 0 -60z"/>
<path d="M6467 7344 c-16 -16 -5 -44 23 -59 17 -9 30 -20 30 -26 0 -17 -29
-22 -47 -8 -14 12 -16 12 -11 -1 6 -19 45 -25 64 -10 23 20 16 40 -21 56 -19
8 -35 19 -35 24 0 18 29 23 47 9 14 -12 16 -12 11 1 -5 16 -49 26 -61 14z"/>
<path d="M6562 7290 c1 -54 2 -58 7 -25 4 26 11 40 21 40 10 0 17 -14 21 -40
l7 -40 -2 45 c-1 38 -4 45 -21 45 -11 0 -23 9 -27 20 -3 11 -6 -9 -6 -45z"/>
<path d="M6098 7328 c-8 -24 8 -92 22 -96 12 -4 13 -2 3 9 -15 15 -17 51 -4
65 6 5 4 14 -4 21 -10 9 -15 9 -17 1z"/>
<path d="M6272 7324 c-7 -8 -8 -15 -2 -19 6 -3 10 -22 10 -41 0 -26 4 -34 18
-33 10 0 12 3 5 6 -15 5 -18 70 -4 75 5 2 4 8 -3 14 -8 8 -15 7 -24 -2z"/>
<path d="M7068 7323 c17 -3 22 -9 17 -21 -17 -41 -23 -72 -14 -72 5 0 9 8 9
18 0 9 7 30 15 46 20 37 20 36 -17 35 -25 -1 -27 -3 -10 -6z"/>
<path d="M7134 7319 c-4 -7 0 -9 14 -5 31 10 35 -9 7 -42 -32 -39 -32 -42 8
-41 23 1 26 3 10 6 -28 5 -29 11 -2 39 12 13 19 30 16 38 -7 18 -43 21 -53 5z"/>
<path d="M5045 7306 c-14 -31 7 -71 38 -72 26 -1 27 1 26 45 l-2 46 -6 -40
c-4 -26 -11 -40 -21 -40 -10 0 -17 14 -21 40 -4 32 -7 36 -14 21z"/>
<path d="M5141 7271 l2 -46 6 39 c7 45 28 59 35 24 3 -13 7 -32 9 -43 3 -11 5
-3 6 17 1 35 15 57 28 44 3 -3 10 -23 14 -43 l7 -38 -1 45 -2 45 -52 1 -53 1
1 -46z"/>
<path d="M5371 7298 c-16 -43 23 -88 50 -61 6 6 1 9 -12 9 -12 -1 -24 5 -26
12 -3 8 6 12 26 12 34 0 36 2 21 31 -15 26 -49 24 -59 -3z m47 -6 c2 -7 -6
-12 -17 -12 -21 0 -27 11 -14 24 9 9 26 2 31 -12z"/>
<path d="M5462 7270 c1 -40 2 -41 5 -11 3 19 12 41 21 47 15 12 15 13 -5 11
-21 -1 -23 -6 -21 -47z"/>
<path d="M5558 7294 c-14 -31 -1 -57 30 -62 29 -4 49 36 33 67 -16 29 -49 27
-63 -5z m47 -20 c0 -19 -5 -29 -15 -29 -16 0 -25 28 -16 51 10 25 31 10 31
-22z"/>
<path d="M5835 7299 c15 -46 25 -69 30 -69 8 0 35 66 34 82 0 7 -8 -5 -18 -27
l-18 -40 -7 32 c-4 18 -12 36 -18 39 -7 4 -8 -2 -3 -17z"/>
<path d="M5918 7295 c-19 -42 25 -86 55 -56 9 9 5 11 -12 9 -13 -2 -26 3 -28
10 -3 8 6 12 26 12 27 0 30 2 22 23 -12 33 -48 34 -63 2z m50 -3 c2 -7 -6 -12
-17 -12 -21 0 -27 11 -14 24 9 9 26 2 31 -12z"/>
<path d="M6011 7271 l2 -46 6 40 c4 26 11 40 21 40 10 0 17 -14 21 -40 l7 -40
-2 45 c-1 42 -3 45 -28 46 -27 1 -28 -1 -27 -45z"/>
<path d="M6157 7313 c-14 -14 -6 -34 18 -45 28 -12 23 -32 -6 -25 -11 3 -19 1
-19 -5 0 -5 12 -8 27 -6 38 4 43 35 8 48 -30 11 -24 34 7 24 14 -4 18 -2 14 5
-8 12 -39 15 -49 4z"/>
<path d="M6328 7294 c-14 -31 -1 -57 30 -62 29 -4 49 36 33 67 -16 29 -49 27
-63 -5z m47 -20 c0 -19 -5 -29 -15 -29 -16 0 -25 28 -16 51 10 25 31 10 31
-22z"/>
<path d="M6651 7298 c-17 -46 21 -86 54 -58 18 15 19 52 3 68 -19 19 -48 14
-57 -10z m53 -11 c8 -12 7 -21 -6 -33 -20 -20 -38 -11 -38 20 0 39 23 46 44
13z"/>
<path d="M6730 7313 c0 -21 22 -83 29 -83 5 0 12 15 16 33 l7 32 11 -32 c12
-40 23 -42 31 -5 4 15 9 36 13 47 3 14 2 17 -5 10 -6 -5 -12 -21 -14 -35 -4
-24 -5 -24 -20 10 -17 37 -15 38 -35 -20 -4 -10 -9 -3 -15 18 -8 29 -18 43
-18 25z"/>
<path d="M6860 7299 c0 -5 5 -7 10 -4 6 3 10 8 10 11 0 2 -4 4 -10 4 -5 0 -10
-5 -10 -11z"/>
<path d="M5627 6743 c-15 -14 -6 -33 18 -39 14 -3 30 -14 36 -23 8 -12 9 -12
6 -1 -2 8 -16 21 -30 28 -34 16 -35 36 -2 30 13 -3 22 -1 19 3 -6 11 -38 12
-47 2z"/>
<path d="M5980 6700 c0 -29 2 -51 5 -48 8 7 9 87 2 95 -4 3 -7 -18 -7 -47z"/>
<path d="M6104 6736 c-3 -8 -4 -31 -1 -52 4 -38 4 -37 5 8 1 26 7 49 15 51 9
4 9 6 -1 6 -7 1 -15 -5 -18 -13z"/>
<path d="M6521 6703 c-1 -23 3 -44 7 -47 4 -2 6 12 4 32 -5 56 -10 62 -11 15z"/>
<path d="M6320 6726 c0 -2 7 -7 16 -10 8 -3 12 -2 9 4 -6 10 -25 14 -25 6z"/>
<path d="M5711 6704 c0 -11 3 -14 6 -6 3 7 2 16 -1 19 -3 4 -6 -2 -5 -13z"/>
<path d="M5832 6690 c0 -19 2 -27 5 -17 2 9 2 25 0 35 -3 9 -5 1 -5 -18z"/>
<path d="M6493 6685 c0 -22 2 -30 4 -17 2 12 2 30 0 40 -3 9 -5 -1 -4 -23z"/>
<path d="M6305 6680 c-8 -13 3 -30 18 -30 8 0 7 3 -2 9 -7 5 -10 14 -7 20 4 6
5 11 2 11 -3 0 -8 -4 -11 -10z"/>
<path d="M5710 6672 c0 -18 29 -27 43 -13 9 9 8 11 -7 5 -11 -4 -21 -2 -27 7
-6 10 -9 11 -9 1z"/>
<path d="M6576 6667 c3 -10 9 -15 12 -12 3 3 0 11 -7 18 -10 9 -11 8 -5 -6z"/>
<path d="M5940 6660 c-9 -6 -10 -10 -3 -10 6 0 15 5 18 10 8 12 4 12 -15 0z"/>
<path d="M6147 6658 c2 -5 10 -8 18 -8 8 0 16 3 18 8 3 4 -5 7 -18 7 -13 0
-21 -3 -18 -7z"/>
<path d="M6427 6659 c7 -7 15 -10 18 -7 3 3 -2 9 -12 12 -14 6 -15 5 -6 -5z"/>
<path d="M5648 6653 c7 -3 16 -2 19 1 4 3 -2 6 -13 5 -11 0 -14 -3 -6 -6z"/>
<path d="M6796 6144 c-5 -14 -4 -15 9 -4 17 14 19 20 6 20 -5 0 -12 -7 -15
-16z"/>
<path d="M6839 6146 c12 -14 10 -21 -18 -56 l-32 -40 38 1 c31 2 33 3 10 6
l-28 4 26 31 c28 33 30 58 5 66 -13 5 -13 3 -1 -12z"/>
<path d="M6929 6103 c2 -33 6 -51 11 -42 8 16 1 99 -9 99 -3 0 -4 -26 -2 -57z"/>
<path d="M6895 6114 c-9 -14 -15 -27 -13 -30 2 -2 12 10 22 26 21 37 15 40 -9
4z"/>
<path d="M6819 5423 c-13 -16 -12 -17 3 -5 15 12 17 9 21 -40 l3 -53 2 58 c2
59 -6 70 -29 40z"/>
<path d="M6894 5425 c-3 -8 -3 -19 1 -25 4 -6 1 -17 -5 -25 -15 -18 3 -45 30
-45 27 0 45 27 30 45 -6 8 -8 20 -4 27 6 10 4 10 -9 0 -18 -16 -37 -8 -37 15
0 11 7 14 25 11 13 -3 22 -1 19 3 -9 14 -44 10 -50 -6z m51 -65 c0 -18 -33
-26 -47 -12 -6 6 -7 15 -3 22 10 16 50 8 50 -10z"/>
<path d="M7003 5383 c9 -2 25 -2 35 0 9 3 1 5 -18 5 -19 0 -27 -2 -17 -5z"/>
<path d="M6830 4699 c-13 -9 -12 -10 2 -5 14 4 18 -3 21 -47 l3 -52 2 58 c2
58 -2 65 -28 46z"/>
<path d="M6895 4699 c-11 -16 -1 -19 13 -3 7 8 8 14 3 14 -5 0 -13 -5 -16 -11z"/>
<path d="M6930 4706 c0 -2 8 -10 18 -17 15 -13 16 -12 3 4 -13 16 -21 21 -21
13z"/>
<path d="M6923 4648 c-38 -42 -37 -48 4 -47 30 2 32 3 11 6 -34 5 -34 10 -6
40 12 13 19 23 16 23 -2 0 -14 -10 -25 -22z"/>
<path d="M6895 3979 c-4 -6 -4 -13 -1 -16 3 -4 6 -1 6 6 0 9 9 12 25 9 14 -3
25 -1 25 3 0 13 -48 11 -55 -2z"/>
<path d="M6880 3941 c0 -50 43 -78 71 -45 16 19 1 48 -27 51 -14 2 -13 0 4 -7
29 -12 25 -44 -6 -48 -18 -3 -22 1 -22 22 0 14 -4 28 -10 31 -5 3 -10 2 -10
-4z"/>
<path d="M7003 3933 c9 -2 25 -2 35 0 9 3 1 5 -18 5 -19 0 -27 -2 -17 -5z"/>
<path d="M6895 3250 c-4 -6 -4 -14 -1 -17 3 -4 6 -1 6 5 0 15 36 16 43 2 3 -6
4 -5 3 2 -3 17 -42 23 -51 8z"/>
<path d="M6951 3204 c0 -11 3 -14 6 -6 3 7 2 16 -1 19 -3 4 -6 -2 -5 -13z"/>
<path d="M7232 3180 c0 -19 2 -27 5 -17 2 9 2 25 0 35 -3 9 -5 1 -5 -18z"/>
<path d="M8332 3180 c0 -19 2 -27 5 -17 2 9 2 25 0 35 -3 9 -5 1 -5 -18z"/>
<path d="M8702 3180 c0 -19 2 -27 5 -17 2 9 2 25 0 35 -3 9 -5 1 -5 -18z"/>
<path d="M9802 3180 c0 -19 2 -27 5 -17 2 9 2 25 0 35 -3 9 -5 1 -5 -18z"/>
<path d="M10902 3180 c0 -19 2 -27 5 -17 2 9 2 25 0 35 -3 9 -5 1 -5 -18z"/>
<path d="M11272 3180 c0 -19 2 -27 5 -17 2 9 2 25 0 35 -3 9 -5 1 -5 -18z"/>
<path d="M12372 3180 c0 -19 2 -27 5 -17 2 9 2 25 0 35 -3 9 -5 1 -5 -18z"/>
<path d="M9058 3060 c12 -5 22 -17 23 -27 0 -11 3 -13 6 -5 7 17 -15 42 -36
41 -11 0 -9 -3 7 -9z"/>
<path d="M8991 3024 c0 -11 3 -14 6 -6 3 7 2 16 -1 19 -3 4 -6 -2 -5 -13z"/>
<path d="M9037 3010 c-3 -11 -1 -20 4 -20 5 0 9 9 9 20 0 11 -2 20 -4 20 -2 0
-6 -9 -9 -20z"/>
<path d="M8306 2991 c-10 -11 -16 -26 -13 -33 4 -9 6 -7 6 4 1 9 11 24 23 32
12 9 18 16 12 16 -6 0 -19 -9 -28 -19z"/>
<path d="M8350 3006 c0 -2 7 -7 16 -10 8 -3 12 -2 9 4 -6 10 -25 14 -25 6z"/>
<path d="M10173 3003 c14 -4 16 -8 6 -19 -6 -7 -16 -11 -22 -7 -6 3 -7 1 -3
-6 4 -6 2 -18 -4 -26 -7 -8 -10 -15 -7 -15 3 0 20 18 37 40 l32 40 -29 -1
c-18 -1 -21 -3 -10 -6z"/>
<path d="M10118 2993 c6 -2 18 -2 25 0 6 3 1 5 -13 5 -14 0 -19 -2 -12 -5z"/>
<path d="M8735 2971 c-3 -5 -1 -12 4 -15 5 -3 11 1 15 9 6 16 -9 21 -19 6z"/>
<path d="M9055 2959 c-4 -6 -17 -14 -29 -19 -19 -8 -18 -9 8 -9 16 -1 26 2 23
6 -4 3 -2 12 4 20 6 7 9 13 6 13 -3 0 -9 -5 -12 -11z"/>
<path d="M10544 2954 c-19 -15 -19 -15 1 -6 11 5 27 12 35 15 13 5 13 6 -1 6
-8 1 -24 -6 -35 -15z"/>
<path d="M8694 2944 c-18 -14 -18 -15 4 -4 12 6 22 13 22 15 0 8 -5 6 -26 -11z"/>
<path d="M10946 2943 c-25 -13 -27 -17 -13 -25 10 -5 17 -19 18 -31 0 -12 3
-16 6 -9 2 6 11 12 19 12 8 0 14 4 14 10 0 5 -6 7 -13 4 -8 -3 -20 2 -27 10
-10 13 -9 17 5 22 10 4 21 1 26 -7 5 -8 9 -9 9 -4 0 27 -15 33 -44 18z"/>
<path d="M8002 2925 c0 -16 2 -22 5 -12 2 9 2 23 0 30 -3 6 -5 -1 -5 -18z"/>
<path d="M9088 2943 c7 -3 16 -2 19 1 4 3 -2 6 -13 5 -11 0 -14 -3 -6 -6z"/>
<path d="M9854 2936 c-19 -15 -19 -15 0 -12 11 2 22 8 24 14 5 16 0 15 -24 -2z"/>
<path d="M9499 2935 c-1 -3 -2 -8 -3 -12 -1 -5 -5 -14 -10 -22 -6 -10 -5 -12
2 -7 18 11 35 46 22 46 -5 0 -11 -2 -11 -5z"/>
<path d="M10170 2920 c-9 -6 -10 -10 -3 -10 6 0 15 5 18 10 8 12 4 12 -15 0z"/>
<path d="M11722 2920 c3 -8 -1 -19 -9 -25 -10 -8 -8 -10 11 -10 21 0 23 3 14
20 -14 26 -22 34 -16 15z"/>
<path d="M7284 2904 c-18 -14 -18 -14 6 -3 31 14 36 19 24 19 -6 0 -19 -7 -30
-16z"/>
<path d="M8715 2899 c-9 -28 -3 -32 21 -14 16 13 16 14 1 9 -13 -5 -16 -2 -11
10 3 9 4 16 1 16 -3 0 -9 -9 -12 -21z"/>
<path d="M8765 2910 c-3 -6 1 -7 9 -4 18 7 21 14 7 14 -6 0 -13 -4 -16 -10z"/>
<path d="M9082 2908 c-16 -16 -15 -33 2 -47 11 -10 21 -9 45 4 17 8 31 18 31
21 0 2 -14 -3 -31 -12 -35 -17 -56 -7 -45 21 4 12 14 16 31 13 13 -3 22 -1 19
3 -8 13 -38 11 -52 -3z"/>
<path d="M9454 2904 c-18 -14 -18 -15 4 -4 12 6 22 13 22 15 0 8 -5 6 -26 -11z"/>
<path d="M9810 2910 c-9 -6 -10 -10 -3 -10 6 0 15 5 18 10 8 12 4 12 -15 0z"/>
<path d="M10895 2911 c-3 -5 -1 -12 5 -16 5 -3 10 1 10 9 0 18 -6 21 -15 7z"/>
<path d="M8334 2899 c-3 -6 -1 -16 6 -22 10 -9 11 -9 5 2 -4 8 -2 17 6 22 9 6
10 9 2 9 -6 0 -15 -5 -19 -11z"/>
<path d="M12428 2894 c-16 -8 -28 -17 -28 -20 0 -2 9 0 20 6 11 6 24 8 29 6 5
-3 11 1 15 9 7 19 -1 18 -36 -1z"/>
<path d="M9832 2888 c-19 -19 -14 -28 16 -27 24 2 24 2 4 6 -19 4 -21 7 -11
19 14 17 8 19 -9 2z"/>
<path d="M10537 2889 c7 -7 15 -10 18 -7 3 3 -2 9 -12 12 -14 6 -15 5 -6 -5z"/>
<path d="M7244 2879 c-3 -6 -2 -15 3 -20 5 -5 9 -1 9 11 0 23 -2 24 -12 9z"/>
<path d="M7990 2880 c-13 -8 -12 -10 3 -10 9 0 17 5 17 10 0 12 -1 12 -20 0z"/>
<path d="M8373 2884 c4 -4 -1 -13 -11 -21 -15 -12 -14 -13 8 -2 33 16 33 16
13 23 -9 4 -14 4 -10 0z"/>
<path d="M9460 2865 c-10 -13 -9 -15 11 -14 13 0 18 3 11 6 -6 2 -10 9 -6 14
9 15 -2 10 -16 -6z"/>
<path d="M9900 2870 c-8 -5 -12 -11 -9 -14 2 -3 11 -1 19 4 8 5 12 11 9 14 -2
3 -11 1 -19 -4z"/>
<path d="M10235 2858 l-20 -21 23 12 c12 6 22 16 22 21 0 13 -2 12 -25 -12z"/>
<path d="M11367 2868 c-16 -12 -15 -13 7 -13 15 0 22 5 19 13 -3 6 -6 12 -7
12 -1 0 -10 -6 -19 -12z"/>
<path d="M11670 2870 c-9 -6 -10 -10 -3 -10 6 0 15 5 18 10 8 12 4 12 -15 0z"/>
<path d="M8740 2855 c-19 -22 -8 -25 13 -3 9 10 13 18 8 18 -5 0 -14 -7 -21
-15z"/>
<path d="M9510 2843 c-20 -20 -21 -23 -5 -15 37 20 61 41 45 41 -8 -1 -26 -12
-40 -26z"/>
<path d="M12105 2847 l-20 -20 21 11 c15 8 25 8 34 -1 11 -9 11 -7 0 8 -8 11
-14 21 -15 21 0 1 -9 -8 -20 -19z"/>
<path d="M12432 2845 c-19 -41 -11 -47 24 -20 18 14 18 15 0 9 -15 -6 -17 -3
-11 14 9 30 1 28 -13 -3z"/>
<path d="M7657 2844 c-15 -8 -25 -20 -21 -25 3 -6 11 -3 18 7 7 9 17 14 23 11
5 -3 10 0 10 8 0 8 -1 15 -1 15 -1 -1 -14 -8 -29 -16z"/>
<path d="M8060 2844 c0 -10 -6 -14 -14 -11 -10 4 -13 1 -9 -9 3 -7 0 -14 -6
-14 -7 0 -16 10 -21 23 -6 15 -9 17 -9 6 -1 -28 24 -42 48 -27 18 11 30 48 16
48 -3 0 -5 -7 -5 -16z"/>
<path d="M8394 2844 c-18 -14 -18 -15 4 -4 12 6 22 13 22 15 0 8 -5 6 -26 -11z"/>
<path d="M10597 2850 c10 -11 10 -17 0 -28 -10 -13 -9 -14 10 -4 12 7 25 17
29 24 4 7 3 8 -5 4 -6 -4 -20 -2 -29 5 -14 11 -15 11 -5 -1z"/>
<path d="M9854 2834 c-18 -14 -18 -15 4 -4 12 6 22 13 22 15 0 8 -5 6 -26 -11z"/>
<path d="M10947 2843 c-4 -3 -7 -11 -7 -17 0 -6 5 -4 10 4 7 12 12 12 22 2 10
-10 10 -15 -2 -22 -8 -5 -12 -12 -9 -15 4 -3 17 4 30 16 13 11 19 18 13 15 -7
-3 -17 1 -24 9 -14 16 -23 19 -33 8z"/>
<path d="M11323 2843 c-7 -2 -13 -10 -13 -17 0 -19 37 -49 52 -43 9 4 8 6 -3
6 -27 2 -44 28 -29 46 13 16 13 16 -7 8z"/>
<path d="M11699 2833 c-13 -16 -12 -17 3 -4 10 7 25 11 33 7 9 -3 13 -2 10 4
-10 15 -31 12 -46 -7z"/>
<path d="M7297 2833 c-3 -5 8 -8 23 -8 15 0 26 3 23 8 -2 4 -13 7 -23 7 -10 0
-21 -3 -23 -7z"/>
<path d="M8780 2830 c-9 -6 -10 -10 -3 -10 6 0 15 5 18 10 8 12 4 12 -15 0z"/>
<path d="M9120 2830 c-9 -6 -10 -10 -3 -10 6 0 15 5 18 10 8 12 4 12 -15 0z"/>
<path d="M8428 2808 c-10 -10 -14 -18 -9 -18 10 0 36 29 30 34 -2 1 -12 -6
-21 -16z"/>
<path d="M12060 2820 c-9 -6 -10 -10 -3 -10 6 0 15 5 18 10 8 12 4 12 -15 0z"/>
<path d="M7690 2804 c0 -11 -6 -15 -20 -11 -11 3 -18 1 -14 -4 8 -13 32 -11
41 5 4 7 15 16 23 19 10 4 7 6 -7 6 -15 1 -23 -5 -23 -15z"/>
<path d="M9169 2803 c-13 -16 -12 -17 4 -4 16 13 21 21 13 21 -2 0 -10 -8 -17
-17z"/>
<path d="M9518 2806 c-10 -7 -18 -22 -17 -32 0 -17 1 -16 9 3 5 12 17 26 27
32 10 6 14 10 8 10 -5 0 -18 -6 -27 -13z"/>
<path d="M9870 2805 c-19 -22 -8 -25 13 -3 9 10 13 18 8 18 -5 0 -14 -7 -21
-15z"/>
<path d="M10634 2804 c-18 -14 -18 -15 4 -4 12 6 22 13 22 15 0 8 -5 6 -26
-11z"/>
<path d="M8075 2800 c-3 -5 -1 -10 4 -10 6 0 11 5 11 10 0 6 -2 10 -4 10 -3 0
-8 -4 -11 -10z"/>
<path d="M11734 2799 c-3 -6 -15 -9 -25 -6 -11 3 -17 1 -13 -4 8 -14 30 -11
44 6 7 8 10 15 7 15 -3 0 -9 -5 -13 -11z"/>
<path d="M12495 2797 c5 -11 -1 -24 -16 -38 l-24 -20 23 11 c29 14 39 37 23
53 -9 9 -11 8 -6 -6z"/>
<path d="M12443 2785 c-3 -9 -3 -18 -1 -21 3 -3 8 4 11 16 6 23 -1 27 -10 5z"/>
<path d="M8040 2780 c-9 -6 -10 -10 -3 -10 6 0 15 5 18 10 8 12 4 12 -15 0z"/>
<path d="M8094 2766 c-9 -20 -9 -23 2 -19 8 3 14 14 14 24 0 25 -3 24 -16 -5z"/>
<path d="M9912 2774 c-7 -8 -8 -14 -3 -14 10 0 25 19 20 25 -2 1 -10 -3 -17
-11z"/>
<path d="M12083 2775 c-3 -9 -3 -18 -1 -21 3 -3 8 4 11 16 6 23 -1 27 -10 5z"/>
<path d="M7348 2764 c-38 -20 -36 -28 2 -9 17 9 30 18 30 20 0 7 -1 6 -32 -11z"/>
<path d="M7701 2767 c-8 -10 -7 -14 4 -14 8 0 15 5 15 10 0 5 7 6 16 3 8 -3
12 -2 9 4 -9 14 -31 12 -44 -3z"/>
<path d="M8425 2769 c-4 -6 -4 -13 -1 -16 3 -4 6 -1 6 6 0 7 5 9 10 6 6 -3 10
-1 10 4 0 14 -17 14 -25 0z"/>
<path d="M8824 2771 c3 -5 -1 -14 -9 -21 -8 -7 -15 -17 -15 -23 0 -5 9 2 20
16 23 28 25 37 9 37 -5 0 -8 -4 -5 -9z"/>
<path d="M9171 2767 c-8 -10 -7 -14 4 -14 8 0 15 5 15 10 0 5 7 6 16 3 8 -3
12 -2 9 4 -9 14 -31 12 -44 -3z"/>
<path d="M9540 2765 c-14 -8 -20 -14 -15 -14 6 0 21 6 35 14 14 8 21 14 15 14
-5 0 -21 -6 -35 -14z"/>
<path d="M10305 2770 c-3 -5 -2 -10 4 -10 5 0 13 5 16 10 3 6 2 10 -4 10 -5 0
-13 -4 -16 -10z"/>
<path d="M10634 2764 c-18 -14 -18 -15 4 -4 12 6 22 13 22 15 0 8 -5 6 -26
-11z"/>
<path d="M11760 2776 c0 -2 7 -7 16 -10 8 -3 12 -2 9 4 -6 10 -25 14 -25 6z"/>
<path d="M12137 2761 c-4 -17 -3 -21 5 -13 5 5 8 16 6 23 -3 8 -7 3 -11 -10z"/>
<path d="M10660 2742 l-25 -25 25 14 c14 7 28 12 33 11 4 -1 7 2 7 7 0 20 -16
17 -40 -7z"/>
<path d="M11730 2760 c-9 -6 -10 -10 -3 -10 6 0 15 5 18 10 8 12 4 12 -15 0z"/>
<path d="M10271 2751 c-7 -5 -12 -14 -10 -20 2 -6 10 -2 17 9 14 22 13 23 -7
11z"/>
<path d="M11029 2743 c-13 -16 -12 -17 4 -4 16 13 21 21 13 21 -2 0 -10 -8
-17 -17z"/>
<path d="M11363 2745 c-3 -9 -3 -18 -1 -21 3 -3 8 4 11 16 6 23 -1 27 -10 5z"/>
<path d="M8457 2739 c7 -7 15 -10 18 -7 3 3 -2 9 -12 12 -14 6 -15 5 -6 -5z"/>
<path d="M9589 2738 c11 -15 11 -21 1 -33 -11 -13 -10 -14 4 -9 21 8 20 28 -1
45 -16 13 -17 12 -4 -3z"/>
<path d="M9931 2734 c0 -11 3 -14 6 -6 3 7 2 16 -1 19 -3 4 -6 -2 -5 -13z"/>
<path d="M12174 2734 c-18 -14 -18 -15 4 -4 12 6 22 13 22 15 0 8 -5 6 -26
-11z"/>
<path d="M7726 2728 c3 -5 10 -6 15 -3 13 9 11 12 -6 12 -8 0 -12 -4 -9 -9z"/>
<path d="M8125 2730 c-3 -5 -2 -10 4 -10 5 0 13 5 16 10 3 6 2 10 -4 10 -5 0
-13 -4 -16 -10z"/>
<path d="M9196 2728 c3 -5 10 -6 15 -3 13 9 11 12 -6 12 -8 0 -12 -4 -9 -9z"/>
<path d="M12494 2724 c-18 -14 -18 -15 4 -4 12 6 22 13 22 15 0 8 -5 6 -26
-11z"/>
<path d="M10297 2723 c-5 -11 42 -53 48 -43 3 4 -2 10 -10 14 -8 3 -15 10 -15
17 0 6 7 8 16 5 8 -3 12 -2 9 4 -7 12 -42 13 -48 3z"/>
<path d="M11762 2718 c-15 -15 -16 -35 -2 -43 6 -3 7 1 4 10 -4 8 -1 22 6 30
15 18 9 20 -8 3z"/>
<path d="M11806 2715 c4 -8 0 -23 -7 -33 -13 -15 -12 -16 4 -3 19 15 22 36 7
46 -6 3 -7 -1 -4 -10z"/>
<path d="M7350 2710 c-9 -6 -10 -10 -3 -10 6 0 15 5 18 10 8 12 4 12 -15 0z"/>
<path d="M7748 2704 c-16 -8 -28 -17 -28 -20 0 -2 9 0 21 6 11 7 27 9 34 6 9
-3 12 0 8 10 -3 7 -6 14 -7 14 0 -1 -13 -8 -28 -16z"/>
<path d="M8091 2711 c-7 -5 -12 -14 -10 -20 2 -6 10 -2 17 9 14 22 13 23 -7
11z"/>
<path d="M11444 2705 c-10 -8 -14 -14 -9 -14 6 0 19 6 29 14 11 8 15 15 10 15
-6 0 -19 -7 -30 -15z"/>
<path d="M12147 2705 c3 -8 9 -12 14 -9 12 7 11 11 -5 17 -10 4 -13 1 -9 -8z"/>
<path d="M12518 2704 c-38 -20 -36 -28 2 -9 17 9 30 18 30 20 0 7 -1 6 -32
-11z"/>
<path d="M9925 2700 c-3 -5 -1 -10 4 -10 6 0 11 5 11 10 0 6 -2 10 -4 10 -3 0
-8 -4 -11 -10z"/>
<path d="M10670 2695 c-19 -22 -8 -25 13 -3 9 10 13 18 8 18 -5 0 -14 -7 -21
-15z"/>
<path d="M7372 2688 c-16 -16 -15 -33 2 -47 11 -10 21 -9 45 4 17 8 31 18 31
21 0 2 -14 -3 -31 -12 -35 -17 -56 -7 -45 21 4 12 14 16 31 13 13 -3 22 -1 19
3 -8 13 -38 11 -52 -3z"/>
<path d="M8546 2686 c4 -9 -6 -20 -25 -31 -17 -8 -31 -18 -31 -21 0 -2 15 3
33 13 17 9 36 16 40 15 4 -1 3 7 -3 18 -12 23 -22 27 -14 6z"/>
<path d="M8895 2670 l-16 -30 38 1 c30 2 32 3 11 6 -31 5 -32 6 -18 34 6 10 8
19 6 19 -3 0 -12 -13 -21 -30z"/>
<path d="M9614 2676 c-9 -20 -9 -23 2 -19 8 3 14 14 14 24 0 25 -3 24 -16 -5z"/>
<path d="M7804 2674 c-18 -14 -18 -15 4 -4 12 6 22 13 22 15 0 8 -5 6 -26 -11z"/>
<path d="M9200 2675 c-10 -13 -9 -15 11 -14 13 0 18 3 11 6 -6 2 -10 9 -6 14
9 15 -2 10 -16 -6z"/>
<path d="M9952 2678 c-14 -14 -16 -34 -4 -42 5 -3 8 5 8 17 -1 28 40 37 48 10
4 -15 5 -15 3 2 -3 23 -36 32 -55 13z"/>
<path d="M11000 2676 c0 -8 4 -17 9 -20 5 -4 7 3 4 14 -6 23 -13 26 -13 6z"/>
<path d="M11060 2669 l-25 -20 33 16 c17 8 32 18 32 20 0 10 -16 4 -40 -16z"/>
<path d="M8110 2670 c-9 -6 -10 -10 -3 -10 6 0 15 5 18 10 8 12 4 12 -15 0z"/>
<path d="M10712 2664 c-7 -8 -8 -14 -3 -14 10 0 25 19 20 25 -2 1 -10 -3 -17
-11z"/>
<path d="M10348 2654 c-38 -20 -36 -28 2 -9 17 9 30 18 30 20 0 7 -1 6 -32
-11z"/>
<path d="M11115 2660 c-3 -6 1 -7 9 -4 18 7 21 14 7 14 -6 0 -13 -4 -16 -10z"/>
<path d="M12184 2648 l-19 -23 23 19 c21 18 27 26 19 26 -2 0 -12 -10 -23 -22z"/>
<path d="M12537 2663 c-3 -5 8 -8 23 -8 15 0 26 3 23 8 -2 4 -13 7 -23 7 -10
0 -21 -3 -23 -7z"/>
<path d="M7754 2644 c-18 -14 -18 -15 4 -4 12 6 22 13 22 15 0 8 -5 6 -26 -11z"/>
<path d="M8177 2640 c3 -11 1 -20 -4 -20 -5 0 -18 -7 -29 -15 -17 -14 -15 -14
14 0 31 15 42 38 23 49 -5 4 -7 -3 -4 -14z"/>
<path d="M9625 2634 c-22 -13 -35 -24 -30 -24 6 0 28 11 50 25 22 13 36 24 30
24 -5 -1 -28 -12 -50 -25z"/>
<path d="M8128 2643 c7 -3 16 -2 19 1 4 3 -2 6 -13 5 -11 0 -14 -3 -6 -6z"/>
<path d="M11074 2634 c-10 -8 -13 -12 -5 -8 7 3 17 0 22 -7 6 -10 9 -8 9 9 0
26 -1 26 -26 6z"/>
<path d="M7795 2630 c-3 -6 1 -7 9 -4 18 7 21 14 7 14 -6 0 -13 -4 -16 -10z"/>
<path d="M7419 2613 c-13 -16 -12 -17 3 -4 10 7 25 11 33 7 9 -3 13 -2 10 4
-10 15 -31 12 -46 -7z"/>
<path d="M9296 2617 c-16 -12 -16 -13 3 -13 11 0 23 6 25 13 3 7 2 13 -2 13
-5 0 -16 -6 -26 -13z"/>
<path d="M11839 2613 c-13 -16 -12 -17 4 -4 9 7 17 15 17 17 0 8 -8 3 -21 -13z"/>
<path d="M12218 2623 c7 -3 16 -2 19 1 4 3 -2 6 -13 5 -11 0 -14 -3 -6 -6z"/>
<path d="M8540 2616 c0 -2 9 -6 20 -9 11 -3 18 -1 14 4 -5 9 -34 13 -34 5z"/>
<path d="M10359 2603 c-13 -16 -12 -17 3 -4 10 7 25 11 33 7 9 -3 13 -2 10 4
-10 15 -31 12 -46 -7z"/>
<path d="M11445 2609 c-4 -6 -4 -13 -1 -16 3 -4 6 -1 6 6 0 8 6 11 16 7 8 -3
12 -2 9 4 -8 13 -22 13 -30 -1z"/>
<path d="M12148 2613 c6 -2 18 -2 25 0 6 3 1 5 -13 5 -14 0 -19 -2 -12 -5z"/>
<path d="M8897 2603 c-3 -5 8 -8 23 -8 15 0 26 3 23 8 -2 4 -13 7 -23 7 -10 0
-21 -3 -23 -7z"/>
<path d="M12588 2594 c-16 -8 -28 -17 -28 -19 0 -10 16 -4 40 15 30 23 25 25
-12 4z"/>
<path d="M7790 2590 c-9 -6 -10 -10 -3 -10 6 0 15 5 18 10 8 12 4 12 -15 0z"/>
<path d="M9250 2590 c-9 -6 -10 -10 -3 -10 6 0 15 5 18 10 8 12 4 12 -15 0z"/>
<path d="M9612 2584 c10 -10 20 -16 22 -13 3 3 -5 11 -17 18 -21 13 -21 12 -5
-5z"/>
<path d="M10036 2584 c-4 -11 -14 -15 -31 -12 -13 3 -22 1 -19 -3 8 -14 40
-10 54 6 7 9 11 18 8 21 -3 3 -8 -3 -12 -12z"/>
<path d="M10779 2588 c7 -10 11 -25 7 -33 -3 -9 -2 -13 4 -10 15 10 12 31 -7
46 -16 13 -17 12 -4 -3z"/>
<path d="M12220 2596 c0 -2 9 -6 20 -9 11 -3 18 -1 14 4 -5 9 -34 13 -34 5z"/>
<path d="M7454 2579 c-3 -6 -15 -9 -25 -6 -11 3 -17 1 -13 -4 8 -14 30 -11 44
6 7 8 10 15 7 15 -3 0 -9 -5 -13 -11z"/>
<path d="M8510 2581 c0 -10 29 -36 34 -30 1 2 -6 12 -16 22 -10 9 -18 13 -18
8z"/>
<path d="M10400 2570 c-19 -11 -31 -19 -27 -20 11 0 67 29 67 35 0 7 -1 7 -40
-15z"/>
<path d="M11112 2578 c-14 -14 -16 -34 -4 -42 5 -3 8 5 8 17 -1 15 6 23 22 25
16 3 22 -2 22 -16 0 -11 -5 -23 -10 -25 -6 -3 -5 -4 2 -3 7 2 13 14 13 27 0
27 -32 38 -53 17z"/>
<path d="M11469 2573 c-13 -15 -12 -15 11 -3 34 17 36 20 18 20 -9 0 -22 -7
-29 -17z"/>
<path d="M11844 2576 c-10 -8 -17 -16 -14 -19 3 -2 14 4 24 14 23 22 18 25
-10 5z"/>
<path d="M7839 2563 c-13 -16 -12 -17 4 -4 9 7 17 15 17 17 0 8 -8 3 -21 -13z"/>
<path d="M9320 2556 c-14 -8 -28 -12 -32 -10 -5 3 -8 0 -8 -5 0 -6 2 -11 5
-11 10 0 65 30 65 35 0 7 -1 6 -30 -9z"/>
<path d="M9695 2557 c5 -11 -1 -24 -16 -38 l-24 -20 23 11 c29 14 39 37 23 53
-9 9 -11 8 -6 -6z"/>
<path d="M10040 2545 c-13 -14 -22 -27 -19 -29 2 -2 14 10 27 25 29 36 24 38
-8 4z"/>
<path d="M11515 2560 c-3 -6 1 -7 9 -4 18 7 21 14 7 14 -6 0 -13 -4 -16 -10z"/>
<path d="M8203 2546 c-31 -15 -29 -28 2 -14 14 6 25 15 25 20 0 4 -1 7 -2 7
-2 -1 -13 -6 -25 -13z"/>
<path d="M8570 2535 c-13 -14 -19 -25 -14 -25 8 1 50 50 41 50 -2 0 -14 -11
-27 -25z"/>
<path d="M9643 2545 c-3 -9 -3 -18 -1 -21 3 -3 8 4 11 16 6 23 -1 27 -10 5z"/>
<path d="M12614 2549 c-3 -6 -15 -9 -25 -6 -11 3 -17 1 -13 -4 8 -14 30 -11
44 6 7 8 10 15 7 15 -3 0 -9 -5 -13 -11z"/>
<path d="M7450 2540 c-9 -6 -10 -10 -3 -10 6 0 15 5 18 10 8 12 4 12 -15 0z"/>
<path d="M8948 2534 c-16 -8 -28 -17 -28 -20 0 -2 9 0 21 6 11 7 27 9 34 6 9
-3 12 0 8 10 -3 7 -6 14 -7 14 0 -1 -13 -8 -28 -16z"/>
<path d="M11865 2540 c-3 -6 1 -7 9 -4 18 7 21 14 7 14 -6 0 -13 -4 -16 -10z"/>
<path d="M9343 2525 c-3 -9 -3 -19 1 -22 3 -4 6 1 6 10 0 8 6 18 13 20 9 4 9
6 -1 6 -7 1 -15 -6 -19 -14z"/>
<path d="M11195 2530 c-3 -6 1 -7 9 -4 18 7 21 14 7 14 -6 0 -13 -4 -16 -10z"/>
<path d="M7499 2513 c-13 -16 -12 -17 4 -4 9 7 17 15 17 17 0 8 -8 3 -21 -13z"/>
<path d="M10058 2523 c10 -4 9 -9 -4 -24 -9 -11 -15 -21 -13 -23 2 -2 14 10
27 25 l24 29 -24 -1 c-13 0 -17 -3 -10 -6z"/>
<path d="M10420 2513 c11 -16 17 -19 27 -11 7 6 13 16 13 22 0 6 -4 5 -9 -3
-8 -13 -12 -13 -27 0 -16 13 -16 12 -4 -8z"/>
<path d="M12624 2514 c-18 -14 -18 -14 6 -3 31 14 36 19 24 19 -6 0 -19 -7
-30 -16z"/>
<path d="M8212 2508 c-14 -14 -16 -34 -4 -42 5 -3 8 5 8 17 -1 15 6 23 22 25
16 3 22 -2 22 -16 0 -11 -5 -23 -10 -25 -6 -3 -5 -4 2 -3 7 2 13 14 13 27 0
27 -32 38 -53 17z"/>
<path d="M8597 2502 c-22 -24 -21 -32 1 -31 11 0 12 2 4 6 -10 4 -9 9 4 24 9
10 15 19 12 19 -3 0 -12 -8 -21 -18z"/>
<path d="M9004 2504 c-18 -14 -18 -15 4 -4 12 6 22 13 22 15 0 8 -5 6 -26 -11z"/>
<path d="M10780 2510 c-9 -6 -10 -10 -3 -10 6 0 15 5 18 10 8 12 4 12 -15 0z"/>
<path d="M11152 2507 c-21 -12 -21 -13 15 -13 21 -1 30 1 20 3 -9 3 -15 9 -12
14 8 12 5 11 -23 -4z"/>
<path d="M9301 2494 c0 -12 6 -27 15 -34 12 -11 18 -10 32 5 16 18 16 18 -1 5
-20 -14 -32 -7 -40 25 -4 19 -5 19 -6 -1z"/>
<path d="M9704 2494 c-18 -14 -18 -15 4 -4 12 6 22 13 22 15 0 8 -5 6 -26 -11z"/>
<path d="M11900 2500 c-9 -6 -10 -10 -3 -10 6 0 15 5 18 10 8 12 4 12 -15 0z"/>
<path d="M8954 2476 c-18 -15 -18 -15 4 -9 18 4 21 2 16 -13 -5 -18 -5 -18 6
-1 17 26 -1 41 -26 23z"/>
<path d="M10454 2475 c-18 -14 -18 -14 4 -8 12 3 22 9 22 14 0 12 -3 11 -26
-6z"/>
<path d="M10785 2479 c-4 -6 -4 -13 -1 -16 3 -4 6 -1 6 6 0 8 6 11 16 7 8 -3
12 -2 9 4 -8 13 -22 13 -30 -1z"/>
<path d="M9377 2442 c-29 -31 -33 -42 -15 -42 6 0 8 3 5 7 -4 4 5 19 20 35 15
15 24 28 22 28 -3 0 -17 -13 -32 -28z"/>
<path d="M10475 2438 l-20 -21 23 12 c12 6 22 16 22 21 0 13 -2 12 -25 -12z"/>
<path d="M10809 2443 c-13 -15 -12 -15 11 -3 34 17 36 20 18 20 -9 0 -22 -7
-29 -17z"/>
<path d="M8610 2440 c-9 -6 -10 -10 -3 -10 6 0 15 5 18 10 8 12 4 12 -15 0z"/>
<path d="M8659 2413 c-13 -16 -12 -17 4 -4 16 13 21 21 13 21 -2 0 -10 -8 -17
-17z"/>
<path d="M9402 2389 c-26 -31 -30 -39 -16 -39 10 0 14 3 11 7 -4 4 5 19 20 35
14 15 25 30 22 32 -2 3 -19 -13 -37 -35z"/>
<path d="M10510 2419 c0 -7 -8 -18 -17 -26 -16 -13 -16 -13 5 -3 19 9 32 40
17 40 -3 0 -5 -5 -5 -11z"/>
<path d="M9418 2363 c7 -3 16 -2 19 1 4 3 -2 6 -13 5 -11 0 -14 -3 -6 -6z"/>
<path d="M2060 1800 c0 -5 5 -10 10 -10 6 0 10 5 10 10 0 6 -4 10 -10 10 -5 0
-10 -4 -10 -10z"/>
<path d="M800 1735 l0 -65 40 0 c22 0 40 5 40 10 0 6 -11 10 -25 10 -24 0 -25
3 -25 55 0 42 -3 55 -15 55 -12 0 -15 -14 -15 -65z"/>
<path d="M1400 1758 c0 -56 -12 -77 -34 -58 -19 15 -31 7 -22 -15 4 -11 16
-15 38 -13 l33 3 3 63 c2 38 -1 62 -8 62 -5 0 -10 -19 -10 -42z"/>
<path d="M1764 1786 c-11 -29 1 -50 34 -60 17 -5 32 -13 32 -18 0 -15 -30 -21
-45 -8 -18 15 -30 7 -22 -15 9 -23 74 -20 87 4 14 28 4 47 -31 57 -39 12 -37
30 2 26 21 -1 29 2 27 10 -7 19 -77 23 -84 4z"/>
<path d="M2223 1776 c-6 -8 -8 -17 -3 -22 5 -5 10 -25 12 -44 2 -27 8 -36 26
-38 12 -2 22 1 22 7 0 6 -4 11 -10 11 -15 0 -12 58 2 62 9 3 8 9 -4 21 -20 20
-29 21 -45 3z"/>
<path d="M904 1745 c-15 -23 -15 -27 0 -50 19 -29 57 -33 77 -9 12 15 10 16
-18 10 -18 -4 -34 -3 -38 3 -4 7 7 11 29 11 38 0 43 8 26 41 -15 27 -56 24
-76 -6z m56 -5 c0 -5 -9 -10 -21 -10 -11 0 -17 5 -14 10 3 6 13 10 21 10 8 0
14 -4 14 -10z"/>
<path d="M1009 1754 c-12 -15 -10 -16 19 -10 18 5 32 4 32 -2 0 -5 -14 -12
-31 -16 -25 -5 -30 -10 -27 -28 2 -19 10 -23 46 -25 l42 -2 0 38 c0 20 -5 42
-12 49 -17 17 -53 15 -69 -4z m51 -54 c0 -5 -7 -10 -15 -10 -8 0 -15 5 -15 10
0 6 7 10 15 10 8 0 15 -4 15 -10z"/>
<path d="M1110 1719 c0 -37 4 -49 15 -49 11 0 15 11 15 35 0 22 6 38 15 41 25
10 17 21 -15 22 -29 1 -30 0 -30 -49z"/>
<path d="M1190 1718 c0 -56 17 -65 22 -10 2 25 8 37 18 37 10 0 16 -12 18 -37
4 -53 32 -52 32 1 0 46 -14 60 -58 59 -32 -1 -32 -2 -32 -50z"/>
<path d="M1457 1764 c-15 -15 -6 -24 17 -18 13 3 27 1 30 -5 5 -7 -2 -11 -17
-11 -14 0 -30 -7 -37 -15 -19 -23 5 -45 46 -43 l35 1 -3 46 c-3 43 -5 46 -33
49 -17 2 -34 0 -38 -4z m48 -64 c-3 -5 -13 -10 -21 -10 -8 0 -14 5 -14 10 0 6
9 10 21 10 11 0 17 -4 14 -10z"/>
<path d="M1558 1723 c24 -65 45 -67 66 -7 19 57 19 54 2 54 -8 0 -18 -16 -23
-37 l-9 -38 -13 38 c-7 20 -19 37 -27 37 -11 0 -11 -8 4 -47z"/>
<path d="M1663 1764 c-26 -11 -13 -25 17 -19 17 4 30 2 30 -3 0 -5 -14 -12
-31 -16 -25 -5 -30 -10 -27 -28 2 -19 10 -23 41 -25 l38 -1 -3 46 c-3 42 -6
47 -28 49 -14 1 -31 -1 -37 -3z m42 -64 c-3 -5 -13 -10 -21 -10 -8 0 -14 5
-14 10 0 6 9 10 21 10 11 0 17 -4 14 -10z"/>
<path d="M1894 1763 c-38 -28 -13 -97 33 -91 37 4 42 28 6 25 -24 -2 -28 2
-28 23 0 21 4 25 28 23 18 -1 27 2 24 10 -4 14 -47 21 -63 10z"/>
<path d="M1980 1719 c0 -37 4 -49 15 -49 11 0 15 11 15 35 0 22 6 38 15 41 25
10 17 21 -15 22 -29 1 -30 0 -30 -49z"/>
<path d="M2060 1720 c0 -27 5 -50 10 -50 6 0 10 23 10 50 0 28 -4 50 -10 50
-5 0 -10 -22 -10 -50z"/>
<path d="M2110 1703 c0 -35 4 -63 10 -63 6 0 10 9 10 19 0 14 5 18 20 14 28
-7 50 14 50 47 0 35 -17 49 -58 48 l-32 -1 0 -64z m64 32 c7 -20 -3 -45 -19
-45 -16 0 -29 35 -20 50 9 15 32 12 39 -5z"/>
<path d="M802 1363 l-2 -63 38 2 c36 1 36 1 5 5 -31 4 -32 5 -36 61 l-3 57 -2
-62z"/>
<path d="M1120 1401 c0 -14 -5 -18 -18 -14 -25 6 -44 -20 -40 -54 3 -24 8 -28
36 -29 l32 -1 0 59 c0 32 -2 58 -5 58 -3 0 -5 -9 -5 -19z m-5 -70 c-4 -13 -13
-21 -23 -19 -21 4 -27 34 -11 54 11 13 14 13 27 1 9 -9 11 -23 7 -36z"/>
<path d="M1432 1369 c-2 -44 2 -58 14 -63 29 -11 53 -6 64 13 13 25 13 101 0
101 -5 0 -10 -23 -10 -50 0 -87 -56 -79 -63 8 -3 46 -3 46 -5 -9z"/>
<path d="M1542 1360 c0 -39 3 -55 7 -41 9 34 25 36 41 6 7 -14 17 -25 23 -25
5 0 -1 16 -13 36 l-22 35 23 25 c12 13 18 24 11 24 -6 0 -19 -11 -30 -25 -25
-32 -30 -31 -35 3 -2 15 -4 -2 -5 -38z"/>
<path d="M891 1376 c-7 -8 -11 -27 -9 -43 3 -24 8 -28 33 -28 25 0 30 4 33 28
4 30 -12 57 -33 57 -7 0 -18 -6 -24 -14z m47 -40 c-2 -13 -10 -21 -23 -21 -23
0 -32 30 -14 51 16 19 41 -1 37 -30z"/>
<path d="M971 1340 c2 -34 3 -38 6 -15 10 64 38 66 53 3 l8 -33 1 35 c1 46 -9
61 -42 58 -25 -2 -27 -5 -26 -48z"/>
<path d="M1158 1364 c-14 -31 -1 -57 30 -62 29 -4 49 36 33 67 -16 29 -49 27
-63 -5z m47 -20 c0 -19 -5 -29 -15 -29 -16 0 -25 28 -16 51 10 25 31 10 31
-22z"/>
<path d="M1252 1340 c1 -40 2 -41 5 -10 8 60 43 64 43 4 0 -19 5 -34 10 -34
13 0 13 46 0 71 -7 12 -20 18 -35 17 -23 -2 -25 -6 -23 -48z"/>
<path d="M1342 1300 c0 -14 2 -19 5 -12 2 6 2 18 0 25 -3 6 -5 1 -5 -13z"/>
<path d="M807 1183 c-14 -13 -7 -25 8 -13 15 13 35 6 35 -12 0 -6 -11 -26 -25
-44 -14 -18 -25 -35 -25 -38 0 -3 17 -5 38 -5 30 2 32 3 10 6 -34 5 -34 8 -3
45 20 23 23 33 15 49 -10 19 -40 26 -53 12z"/>
<path d="M902 1178 c-17 -17 -15 -83 3 -98 22 -19 49 -8 58 25 17 59 -25 109
-61 73z m43 -48 c0 -50 -19 -64 -36 -26 -9 20 -9 32 0 52 17 38 36 24 36 -26z"/>
<path d="M997 1183 c-4 -3 -7 -13 -7 -22 1 -14 2 -13 11 2 5 9 17 17 24 17 24
0 17 -44 -10 -70 -34 -32 -31 -40 13 -39 30 2 32 3 9 6 l-27 4 26 34 c30 40
26 75 -10 75 -12 0 -26 -3 -29 -7z"/>
<path d="M1092 1178 c-17 -17 -15 -83 3 -98 22 -19 49 -8 58 25 17 59 -25 109
-61 73z m43 -48 c0 -50 -19 -64 -36 -26 -9 20 -9 32 0 52 17 38 36 24 36 -26z"/>
<path d="M1262 1178 c-17 -17 -15 -83 3 -98 22 -19 49 -8 58 25 17 59 -25 109
-61 73z m43 -48 c0 -50 -19 -64 -36 -26 -9 20 -9 32 0 52 17 38 36 24 36 -26z"/>
<path d="M1350 1156 c0 -30 2 -33 25 -28 28 5 45 -22 26 -41 -9 -9 -17 -8 -32
2 -18 10 -20 10 -17 -1 3 -7 18 -13 34 -13 23 0 30 5 32 23 5 31 -16 54 -40
46 -15 -5 -19 -2 -16 12 2 11 15 21 33 25 29 6 29 7 -7 8 -37 1 -38 0 -38 -33z"/>
<path d="M1528 1179 c-10 -5 -18 -15 -18 -21 0 -7 5 -6 15 2 13 11 15 6 15
-39 0 -28 5 -51 10 -51 6 0 10 27 10 60 0 62 -3 66 -32 49z"/>
<path d="M1597 1183 c-4 -3 -7 -19 -7 -34 0 -28 28 -47 50 -34 5 3 10 -1 10
-10 0 -22 -27 -30 -47 -14 -14 12 -16 12 -11 -1 2 -8 16 -16 30 -18 22 -3 28
2 37 31 16 46 0 87 -32 87 -13 0 -27 -3 -30 -7z m51 -27 c4 -21 -14 -37 -35
-29 -14 5 -18 35 -6 47 12 12 38 1 41 -18z"/>
<path d="M1688 1183 c20 -4 22 -10 22 -59 0 -30 5 -54 10 -54 6 0 10 24 10 54
0 44 4 55 18 59 9 3 -5 5 -33 4 -27 0 -40 -2 -27 -4z"/>
<path d="M1789 1173 c-12 -15 -12 -16 3 -10 14 5 18 -2 21 -46 l3 -52 2 63 c2
64 -5 75 -29 45z"/>
<path d="M1857 1184 c-24 -24 7 -82 38 -70 9 3 15 0 15 -10 0 -21 -27 -29 -47
-13 -14 12 -16 12 -11 -1 3 -9 17 -15 34 -15 35 0 53 39 38 83 -9 26 -50 43
-67 26z m51 -30 c4 -25 -22 -38 -37 -20 -15 18 -3 48 18 44 9 -2 17 -13 19
-24z"/>
<path d="M2002 1178 c-17 -17 -15 -33 2 -18 13 10 15 3 19 -42 l3 -53 2 63 c2
62 -3 73 -26 50z"/>
<path d="M2088 1183 c17 -2 32 -6 32 -9 0 -3 -11 -27 -25 -54 -14 -28 -21 -50
-16 -50 9 0 51 90 51 109 0 6 -17 10 -37 9 -37 -1 -37 -1 -5 -5z"/>
<path d="M2232 1178 c-11 -15 -42 -75 -42 -83 0 -3 14 -5 30 -5 17 0 30 -5 30
-12 1 -9 3 -8 9 2 9 18 2 110 -9 110 -4 0 -12 -6 -18 -12z m18 -38 c0 -23 -4
-30 -20 -30 -20 0 -20 1 -5 30 9 17 18 30 20 30 3 0 5 -13 5 -30z"/>
<path d="M2307 1183 c-12 -22 -16 -65 -7 -88 8 -21 16 -26 38 -23 19 2 28 9
30 26 5 30 -16 54 -39 47 -13 -5 -19 -1 -19 10 0 22 27 30 47 14 14 -12 16
-12 11 1 -5 16 -53 26 -61 13z m51 -76 c4 -20 -25 -34 -40 -19 -15 15 -1 44
19 40 10 -2 19 -11 21 -21z"/>
<path d="M2436 1174 c-10 -26 -7 -79 6 -92 31 -31 58 -8 58 48 0 43 -10 60
-35 60 -13 0 -26 -7 -29 -16z m50 -19 c8 -34 -3 -75 -21 -75 -8 0 -17 11 -21
25 -8 34 3 75 21 75 8 0 17 -11 21 -25z"/>
<path d="M2534 1179 c-4 -6 -7 -28 -7 -49 0 -21 3 -43 7 -49 9 -15 39 -14 54
1 16 16 16 80 0 96 -15 15 -45 16 -54 1z m44 -11 c17 -17 15 -63 -3 -78 -22
-18 -35 -3 -35 39 0 50 13 64 38 39z"/>
<path d="M2631 1171 c-15 -27 -14 -63 2 -85 32 -43 81 15 61 72 -12 34 -48 42
-63 13z m49 -16 c11 -30 -4 -79 -23 -73 -13 5 -22 61 -13 84 8 22 26 17 36
-11z"/>
<path d="M2747 1181 l33 -6 -30 -45 c-16 -25 -30 -48 -30 -52 0 -5 19 -7 43
-6 36 1 38 2 10 5 -38 5 -39 6 -14 41 10 15 23 37 30 50 11 21 10 22 -31 21
-41 -2 -41 -2 -11 -8z"/>
<path d="M1950 1160 c0 -5 5 -10 10 -10 6 0 10 5 10 10 0 6 -4 10 -10 10 -5 0
-10 -4 -10 -10z"/>
<path d="M2150 1160 c0 -5 5 -10 10 -10 6 0 10 5 10 10 0 6 -4 10 -10 10 -5 0
-10 -4 -10 -10z"/>
<path d="M1193 1113 c9 -2 23 -2 30 0 6 3 -1 5 -18 5 -16 0 -22 -2 -12 -5z"/>
<path d="M1453 1113 c9 -2 23 -2 30 0 6 3 -1 5 -18 5 -16 0 -22 -2 -12 -5z"/>
<path d="M1955 1100 c-3 -5 -1 -10 4 -10 6 0 11 5 11 10 0 6 -2 10 -4 10 -3 0
-8 -4 -11 -10z"/>
<path d="M2155 1100 c-3 -5 -1 -10 4 -10 6 0 11 5 11 10 0 6 -2 10 -4 10 -3 0
-8 -4 -11 -10z"/>
<path d="M2390 1080 c0 -5 5 -10 10 -10 6 0 10 5 10 10 0 6 -4 10 -10 10 -5 0
-10 -4 -10 -10z"/>
<path d="M803 900 c0 -36 2 -53 4 -37 4 22 9 27 34 27 24 0 29 -4 29 -25 0
-14 5 -25 10 -25 6 0 10 27 10 60 0 33 -4 60 -10 60 -5 0 -10 -11 -10 -25 0
-21 -5 -25 -29 -25 -25 0 -30 5 -34 28 -2 15 -4 -2 -4 -38z"/>
<path d="M1870 940 c0 -17 -5 -19 -25 -14 -20 5 -27 2 -34 -17 -14 -38 1 -64
38 -65 l31 -1 0 59 c0 32 -2 58 -5 58 -3 0 -5 -9 -5 -20z m-9 -41 c9 -17 8
-25 -4 -36 -19 -19 -37 -9 -37 21 0 40 23 49 41 15z"/>
<path d="M2190 940 c0 -13 -5 -18 -15 -14 -21 8 -45 -14 -45 -41 0 -29 18 -43
53 -43 26 0 27 2 27 59 0 33 -4 59 -10 59 -5 0 -10 -9 -10 -20z m-5 -56 c0
-19 -5 -29 -15 -29 -16 0 -25 28 -16 51 10 25 31 10 31 -22z"/>
<path d="M2270 900 c0 -33 4 -60 10 -60 6 0 10 15 10 34 0 60 35 56 43 -4 3
-27 4 -25 3 10 -1 40 -4 45 -23 44 -16 0 -23 5 -23 18 0 10 -4 18 -10 18 -6 0
-10 -27 -10 -60z"/>
<path d="M3393 900 c0 -36 1 -57 4 -47 6 21 17 22 33 2 7 -9 15 -13 18 -10 3
3 -3 14 -13 25 -17 19 -17 21 1 43 18 21 17 21 -8 -2 l-27 -23 -4 38 c-2 23
-4 13 -4 -26z"/>
<path d="M3526 945 c-20 -21 -21 -69 0 -89 21 -22 61 -20 74 3 16 31 12 41
-17 40 -18 -1 -22 -3 -10 -6 25 -6 17 -37 -11 -41 -42 -6 -49 68 -8 93 13 8
21 6 32 -10 l16 -20 -4 20 c-4 26 -50 32 -72 10z"/>
<path d="M3913 900 c0 -36 2 -50 4 -32 2 17 2 47 0 65 -2 17 -4 3 -4 -33z"/>
<path d="M4342 900 c0 -53 2 -59 8 -32 15 63 43 61 53 -3 3 -19 4 -13 3 15 -1
42 -3 45 -28 43 -20 -1 -28 4 -31 20 -2 12 -4 -7 -5 -43z"/>
<path d="M5040 900 c0 -33 4 -60 10 -60 6 0 10 15 10 34 0 60 35 56 43 -4 3
-27 4 -25 3 10 -1 40 -4 45 -23 44 -16 0 -23 5 -23 18 0 10 -4 18 -10 18 -6 0
-10 -27 -10 -60z"/>
<path d="M5260 900 c0 -33 4 -60 10 -60 6 0 10 27 10 60 0 33 -4 60 -10 60 -6
0 -10 -27 -10 -60z"/>
<path d="M5608 943 c-2 -10 -1 -38 3 -63 6 -42 6 -43 7 -9 1 19 7 40 14 47 9
9 9 12 -1 12 -11 0 -11 3 -1 15 10 12 10 15 -3 15 -8 0 -16 -8 -19 -17z"/>
<path d="M5763 900 c0 -36 2 -51 4 -35 9 62 43 69 43 9 0 -19 5 -34 10 -34 16
0 12 66 -5 80 -8 7 -21 10 -29 7 -10 -4 -16 2 -19 16 -2 12 -4 -7 -4 -43z"/>
<path d="M7363 900 c0 -36 2 -50 4 -32 2 17 2 47 0 65 -2 17 -4 3 -4 -33z"/>
<path d="M7952 903 l-2 -63 38 2 c36 1 36 1 5 5 -31 4 -32 5 -36 61 l-3 57 -2
-62z"/>
<path d="M8270 940 c0 -13 -5 -18 -15 -14 -21 8 -45 -14 -45 -41 0 -28 19 -45
48 -42 20 1 22 7 22 59 0 32 -2 58 -5 58 -3 0 -5 -9 -5 -20z m-2 -59 c-4 -32
-34 -40 -43 -11 -8 25 11 51 31 43 9 -3 14 -16 12 -32z"/>
<path d="M8490 945 c-9 -10 -9 -15 -1 -15 6 0 11 5 11 10 0 6 7 10 15 10 18 0
20 -31 3 -48 -6 -6 -9 -14 -6 -18 4 -3 14 6 23 20 14 21 15 29 5 41 -16 19
-34 19 -50 0z"/>
<path d="M8624 900 c-12 -33 -18 -60 -14 -60 5 0 10 7 14 15 3 8 17 15 31 15
16 0 25 -6 25 -15 0 -8 4 -15 9 -15 5 0 1 27 -11 60 -11 33 -23 60 -26 60 -4
0 -16 -27 -28 -60z m34 -9 c-15 -5 -21 7 -13 26 7 17 8 17 15 -2 4 -11 3 -22
-2 -24z"/>
<path d="M8860 940 c0 -13 -5 -18 -15 -14 -21 8 -45 -14 -45 -41 0 -29 18 -43
53 -43 26 0 27 2 27 59 0 33 -4 59 -10 59 -5 0 -10 -9 -10 -20z m-5 -56 c0
-19 -5 -29 -15 -29 -16 0 -25 28 -16 51 10 25 31 10 31 -22z"/>
<path d="M8942 900 c0 -53 2 -59 8 -32 15 63 43 61 53 -3 3 -19 4 -13 3 15 -1
42 -3 45 -28 43 -20 -1 -28 4 -31 20 -2 12 -4 -7 -5 -43z"/>
<path d="M9296 945 c-20 -21 -21 -69 0 -89 21 -22 61 -20 74 3 16 31 12 41
-17 40 -18 -1 -22 -3 -10 -6 25 -6 17 -37 -11 -41 -42 -6 -49 68 -8 93 13 8
21 6 32 -10 l16 -20 -4 20 c-4 26 -50 32 -72 10z"/>
<path d="M9683 900 c0 -36 2 -50 4 -32 2 17 2 47 0 65 -2 17 -4 3 -4 -33z"/>
<path d="M10883 900 c0 -36 2 -51 4 -35 9 62 43 69 43 9 0 -19 5 -34 10 -34
16 0 12 66 -5 80 -8 7 -21 10 -29 7 -10 -4 -16 2 -19 16 -2 12 -4 -7 -4 -43z"/>
<path d="M11103 900 c0 -36 2 -50 4 -32 2 17 2 47 0 65 -2 17 -4 3 -4 -33z"/>
<path d="M11310 945 c-9 -10 -9 -15 -1 -15 6 0 11 5 11 10 0 6 7 10 15 10 18
0 20 -31 3 -48 -6 -6 -9 -14 -6 -18 4 -3 14 6 23 20 14 21 15 29 5 41 -16 19
-34 19 -50 0z"/>
<path d="M11433 900 c0 -36 2 -53 4 -37 4 23 9 27 38 27 29 0 34 -4 38 -27 2
-16 4 1 4 37 0 36 -2 53 -4 38 -4 -24 -9 -28 -38 -28 -29 0 -34 4 -38 28 -2
15 -4 -2 -4 -38z"/>
<path d="M4078 938 c-8 -24 8 -92 22 -96 12 -4 13 -2 3 9 -15 15 -17 66 -4 71
5 2 3 8 -4 15 -10 9 -15 9 -17 1z"/>
<path d="M4989 938 c-5 -51 9 -98 29 -98 13 0 14 2 4 9 -8 5 -13 23 -12 42 3
49 1 59 -10 59 -5 0 -11 -6 -11 -12z"/>
<path d="M5419 938 c-5 -51 9 -98 29 -98 13 0 14 2 4 9 -8 5 -13 23 -12 42 3
49 1 59 -10 59 -5 0 -11 -6 -11 -12z"/>
<path d="M5708 938 c-8 -24 8 -92 22 -96 12 -4 13 -2 3 9 -15 15 -17 66 -4 71
5 2 3 8 -4 15 -10 9 -15 9 -17 1z"/>
<path d="M5979 938 c-5 -51 9 -98 29 -98 13 0 14 2 4 9 -8 5 -13 23 -12 42 3
49 1 59 -10 59 -5 0 -11 -6 -11 -12z"/>
<path d="M6262 934 c-7 -8 -8 -15 -2 -19 6 -3 10 -22 10 -41 0 -26 4 -34 18
-33 10 0 12 3 5 6 -15 5 -18 70 -4 75 5 2 4 8 -3 14 -8 8 -15 7 -24 -2z"/>
<path d="M6842 934 c-7 -8 -8 -15 -2 -19 6 -3 10 -22 10 -41 0 -26 4 -34 18
-33 10 0 12 3 5 6 -15 5 -18 70 -4 75 5 2 4 8 -3 14 -8 8 -15 7 -24 -2z"/>
<path d="M10348 938 c-8 -24 8 -92 22 -96 12 -4 13 -2 3 9 -15 15 -17 66 -4
71 5 2 3 8 -4 15 -10 9 -15 9 -17 1z"/>
<path d="M10828 938 c-8 -24 8 -92 22 -96 12 -4 13 -2 3 9 -15 15 -17 66 -4
71 5 2 3 8 -4 15 -10 9 -15 9 -17 1z"/>
<path d="M11258 938 c-8 -24 8 -92 22 -96 12 -4 13 -2 3 9 -15 15 -17 66 -4
71 5 2 3 8 -4 15 -10 9 -15 9 -17 1z"/>
<path d="M915 921 c-4 -7 2 -10 16 -8 29 3 36 -21 7 -25 -15 -2 -24 -11 -26
-26 -3 -20 0 -22 28 -20 30 2 31 4 28 43 -2 32 -7 41 -25 43 -11 2 -24 -2 -28
-7z m45 -51 c0 -12 -28 -25 -36 -17 -9 9 6 27 22 27 8 0 14 -5 14 -10z"/>
<path d="M991 926 c-2 -18 23 -86 31 -86 8 0 17 19 33 69 5 15 4 21 -3 17 -6
-3 -14 -21 -18 -39 l-7 -32 -18 40 c-10 22 -18 36 -18 31z"/>
<path d="M1082 918 c-15 -15 -15 -51 0 -66 15 -15 45 -16 53 -2 4 7 -2 9 -18
5 -17 -5 -26 -2 -30 9 -5 12 0 16 23 16 18 0 30 5 30 13 0 16 -20 37 -35 37
-6 0 -16 -5 -23 -12z m34 -26 c-22 -5 -30 3 -21 18 5 8 11 7 22 -2 15 -12 14
-13 -1 -16z"/>
<path d="M1205 910 c3 -14 8 -38 12 -54 4 -19 1 -31 -8 -37 -11 -7 -11 -9 3
-9 11 0 23 18 38 56 11 31 18 59 16 62 -6 5 -25 -41 -27 -61 0 -7 -9 6 -20 28
-12 25 -17 30 -14 15z"/>
<path d="M1288 904 c-14 -31 -1 -57 30 -62 29 -4 49 36 33 67 -16 29 -49 27
-63 -5z m47 -20 c0 -19 -5 -29 -15 -29 -16 0 -25 28 -16 51 10 25 31 10 31
-22z"/>
<path d="M1375 916 c-14 -31 7 -71 38 -72 26 -1 27 1 26 45 l-2 46 -6 -40 c-4
-26 -11 -40 -21 -40 -10 0 -17 14 -21 40 -4 32 -7 36 -14 21z"/>
<path d="M1503 914 c4 -11 9 -31 13 -46 8 -37 19 -35 31 5 l11 32 7 -32 c4
-18 11 -33 16 -33 10 0 33 80 25 88 -3 3 -9 -9 -12 -26 -7 -33 -24 -34 -24 -2
0 32 -20 33 -26 1 -7 -32 -24 -33 -24 -1 0 10 -5 22 -11 26 -7 4 -9 0 -6 -12z"/>
<path d="M1628 904 c-14 -31 -1 -57 30 -62 29 -4 49 36 33 67 -16 29 -49 27
-63 -5z m47 -20 c0 -19 -5 -29 -15 -29 -16 0 -25 28 -16 51 10 25 31 10 31
-22z"/>
<path d="M1722 880 c1 -40 2 -41 5 -10 8 60 43 64 43 4 0 -19 5 -34 10 -34 13
0 13 46 0 71 -7 12 -20 18 -35 17 -23 -2 -25 -6 -23 -48z"/>
<path d="M1912 918 c-27 -27 -7 -78 29 -78 10 0 21 5 24 10 4 7 -2 9 -18 5
-17 -5 -26 -2 -30 9 -5 12 0 16 23 16 18 0 30 5 30 13 0 16 -20 37 -35 37 -6
0 -16 -5 -23 -12z m34 -26 c-22 -5 -30 3 -21 18 5 8 11 7 22 -2 15 -12 14 -13
-1 -16z"/>
<path d="M1991 880 c2 -34 3 -37 6 -15 3 17 12 38 20 47 14 15 13 17 -6 15
-18 -1 -21 -7 -20 -47z"/>
<path d="M2048 905 c-19 -42 25 -86 55 -56 9 9 5 11 -12 9 -13 -2 -26 3 -28
10 -3 8 6 12 26 12 27 0 30 2 22 23 -12 33 -48 34 -63 2z m50 -3 c2 -7 -6 -12
-17 -12 -21 0 -27 11 -14 24 9 9 26 2 31 -12z"/>
<path d="M2372 918 c-16 -16 -15 -53 3 -68 33 -28 71 12 54 58 -9 24 -38 29
-57 10z m43 -34 c0 -19 -6 -30 -17 -32 -21 -4 -34 34 -17 54 18 22 34 11 34
-22z"/>
<path d="M2452 893 c13 -51 25 -62 34 -29 7 30 24 35 24 7 0 -21 15 -36 23
-24 3 5 8 26 11 48 l5 40 -13 -40 -13 -40 -8 38 c-4 20 -11 37 -15 37 -4 0
-12 -17 -17 -37 l-10 -38 -8 38 c-4 20 -11 37 -15 37 -5 0 -4 -17 2 -37z"/>
<path d="M2615 910 c3 -14 8 -38 12 -54 4 -19 1 -31 -8 -37 -11 -7 -11 -9 3
-9 11 0 23 18 38 56 11 31 18 59 16 62 -6 5 -25 -41 -27 -61 0 -7 -9 6 -20 28
-12 25 -17 30 -14 15z"/>
<path d="M2698 904 c-14 -31 -1 -57 30 -62 29 -4 49 36 33 67 -16 29 -49 27
-63 -5z m47 -20 c0 -19 -5 -29 -15 -29 -16 0 -25 28 -16 51 10 25 31 10 31
-22z"/>
<path d="M2785 916 c-14 -31 7 -71 38 -72 26 -1 27 1 26 45 l-2 46 -6 -40 c-4
-26 -11 -40 -21 -40 -10 0 -17 14 -21 40 -4 32 -7 36 -14 21z"/>
<path d="M2921 908 c-16 -44 23 -88 52 -59 9 9 5 11 -13 9 -20 -2 -26 2 -28
21 -5 30 13 50 30 33 17 -17 33 -15 18 3 -18 22 -49 18 -59 -7z"/>
<path d="M3015 919 c-4 -6 0 -9 10 -7 10 2 20 -2 22 -9 2 -6 -6 -13 -19 -15
-15 -2 -23 -10 -23 -23 0 -15 8 -21 33 -23 30 -3 32 -2 32 30 0 47 -36 78 -55
47z m35 -54 c0 -8 -7 -15 -15 -15 -8 0 -15 7 -15 15 0 8 7 15 15 15 8 0 15 -7
15 -15z"/>
<path d="M3091 880 c2 -34 3 -38 6 -15 10 64 38 66 53 3 l8 -33 1 35 c1 46 -9
61 -42 58 -25 -2 -27 -5 -26 -48z"/>
<path d="M3225 921 c-4 -7 2 -10 16 -8 29 3 36 -21 7 -25 -15 -2 -24 -11 -26
-26 -3 -20 0 -22 28 -20 30 2 31 4 28 43 -2 32 -7 41 -25 43 -11 2 -24 -2 -28
-7z m45 -51 c0 -12 -28 -25 -36 -17 -9 9 6 27 22 27 8 0 14 -5 14 -10z"/>
<path d="M3312 917 c-13 -15 -4 -31 21 -40 28 -10 21 -30 -9 -23 -17 5 -23 3
-19 -4 9 -15 52 -12 58 4 6 16 -11 36 -30 36 -7 0 -13 7 -13 16 0 11 6 14 21
9 15 -5 19 -4 15 4 -10 15 -31 14 -44 -2z"/>
<path d="M3641 916 c-7 -8 -11 -27 -9 -43 3 -24 8 -28 33 -28 25 0 30 4 33 28
4 30 -12 57 -33 57 -7 0 -18 -6 -24 -14z m47 -40 c-2 -13 -10 -21 -23 -21 -23
0 -32 30 -14 51 16 19 41 -1 37 -30z"/>
<path d="M3731 916 c-7 -8 -11 -27 -9 -43 3 -24 8 -28 33 -28 25 0 30 4 33 28
4 30 -12 57 -33 57 -7 0 -18 -6 -24 -14z m47 -40 c-2 -13 -10 -21 -23 -21 -23
0 -32 30 -14 51 16 19 41 -1 37 -30z"/>
<path d="M3822 918 c-29 -29 0 -84 37 -70 8 3 12 -1 9 -9 -3 -8 -16 -13 -29
-11 -17 2 -21 0 -12 -9 6 -6 19 -9 29 -7 15 3 20 14 22 58 3 52 1 56 -21 58
-13 1 -29 -4 -35 -10z m46 -32 c-4 -25 -36 -34 -44 -12 -8 21 13 46 32 39 8
-3 14 -15 12 -27z"/>
<path d="M3952 918 c-27 -27 -7 -78 29 -78 10 0 21 5 24 10 4 7 -2 9 -18 5
-17 -5 -26 -2 -30 9 -5 12 0 16 23 16 18 0 30 5 30 13 0 16 -20 37 -35 37 -6
0 -16 -5 -23 -12z m34 -26 c-22 -5 -30 3 -21 18 5 8 11 7 22 -2 15 -12 14 -13
-1 -16z"/>
<path d="M4131 908 c-17 -46 21 -86 54 -58 18 15 19 52 3 68 -19 19 -48 14
-57 -10z m53 -11 c8 -12 7 -21 -6 -33 -20 -20 -38 -11 -38 20 0 39 23 46 44
13z"/>
<path d="M4267 923 c-15 -14 -6 -34 19 -43 30 -12 22 -34 -9 -24 -17 5 -19 3
-11 -6 16 -16 48 -9 52 13 2 11 -6 20 -23 27 -30 11 -24 34 7 24 14 -4 18 -2
14 5 -8 12 -39 15 -49 4z"/>
<path d="M4442 918 c-16 -16 -15 -53 3 -68 33 -28 71 12 54 58 -9 24 -38 29
-57 10z m43 -34 c0 -19 -6 -30 -17 -32 -21 -4 -34 34 -17 54 18 22 34 11 34
-22z"/>
<path d="M4522 893 c13 -51 25 -62 34 -29 7 30 24 35 24 7 0 -21 15 -36 23
-24 3 5 8 26 11 48 l5 40 -13 -40 -13 -40 -8 38 c-4 20 -11 37 -15 37 -4 0
-12 -17 -17 -37 l-10 -38 -8 38 c-4 20 -11 37 -15 37 -5 0 -4 -17 2 -37z"/>
<path d="M4685 910 c3 -14 8 -38 12 -54 4 -19 1 -31 -8 -37 -11 -7 -11 -9 3
-9 11 0 23 18 38 56 11 31 18 59 16 62 -6 5 -25 -41 -27 -61 0 -7 -9 6 -20 28
-12 25 -17 30 -14 15z"/>
<path d="M4768 904 c-14 -31 -1 -57 30 -62 29 -4 49 36 33 67 -16 29 -49 27
-63 -5z m47 -20 c0 -19 -5 -29 -15 -29 -16 0 -25 28 -16 51 10 25 31 10 31
-22z"/>
<path d="M4855 916 c-14 -31 7 -71 38 -72 26 -1 27 1 26 45 l-2 46 -6 -40 c-4
-26 -11 -40 -21 -40 -10 0 -17 14 -21 40 -4 32 -7 36 -14 21z"/>
<path d="M5142 918 c-27 -27 -7 -78 29 -78 10 0 21 5 24 10 4 7 -2 9 -18 5
-17 -5 -26 -2 -30 9 -5 12 0 16 23 16 18 0 30 5 30 13 0 16 -20 37 -35 37 -6
0 -16 -5 -23 -12z m34 -26 c-22 -5 -30 3 -21 18 5 8 11 7 22 -2 15 -12 14 -13
-1 -16z"/>
<path d="M5303 885 c0 -27 2 -38 4 -22 2 15 2 37 0 50 -2 12 -4 0 -4 -28z"/>
<path d="M5347 923 c-14 -14 -6 -34 18 -45 28 -12 23 -32 -6 -25 -11 3 -19 1
-19 -5 0 -5 12 -8 27 -6 38 4 43 35 8 48 -30 11 -24 34 7 24 14 -4 18 -2 14 5
-8 12 -39 15 -49 4z"/>
<path d="M5518 904 c-14 -31 -1 -57 30 -62 29 -4 49 36 33 67 -16 29 -49 27
-63 -5z m47 -20 c0 -19 -5 -29 -15 -29 -16 0 -25 28 -16 51 10 25 31 10 31
-22z"/>
<path d="M5851 908 c-16 -43 23 -88 50 -61 6 6 1 9 -12 9 -12 -1 -24 5 -26 12
-3 8 6 12 26 12 34 0 36 2 21 31 -15 26 -49 24 -59 -3z m47 -6 c2 -7 -6 -12
-17 -12 -21 0 -27 11 -14 24 9 9 26 2 31 -12z"/>
<path d="M6042 918 c-16 -16 -15 -53 3 -68 33 -28 71 12 54 58 -9 24 -38 29
-57 10z m43 -34 c0 -19 -6 -30 -17 -32 -21 -4 -34 34 -17 54 18 22 34 11 34
-22z"/>
<path d="M6120 869 c0 -33 4 -59 10 -59 6 0 10 9 10 20 0 13 5 18 15 14 21 -8
45 14 45 41 0 29 -18 43 -52 43 -27 0 -28 -2 -28 -59z m55 15 c0 -19 -5 -29
-15 -29 -16 0 -25 28 -16 51 10 25 31 10 31 -22z"/>
<path d="M6322 918 c-27 -27 -7 -78 29 -78 10 0 21 5 24 10 4 7 -2 9 -18 5
-17 -5 -26 -2 -30 9 -5 12 0 16 23 16 18 0 30 5 30 13 0 16 -20 37 -35 37 -6
0 -16 -5 -23 -12z m34 -26 c-22 -5 -30 3 -21 18 5 8 11 7 22 -2 15 -12 14 -13
-1 -16z"/>
<path d="M6400 884 c0 -24 5 -44 10 -44 6 0 10 15 10 34 0 60 33 53 43 -9 3
-19 4 -13 3 15 -1 43 -2 45 -33 47 -33 1 -33 1 -33 -43z"/>
<path d="M6541 881 l2 -46 6 39 c7 45 28 59 35 24 3 -13 7 -32 9 -43 3 -11 5
-3 6 17 1 35 15 57 28 44 3 -3 10 -23 14 -43 l7 -38 -1 45 -2 45 -52 1 -53 1
1 -46z"/>
<path d="M6673 890 c2 -43 3 -45 35 -48 32 -3 32 -3 32 43 0 28 -4 44 -10 40
-5 -3 -10 -22 -10 -41 0 -39 -27 -48 -34 -11 -13 57 -14 59 -13 17z"/>
<path d="M6767 923 c-15 -14 -6 -34 19 -43 30 -12 22 -34 -9 -24 -17 5 -19 3
-11 -6 16 -16 48 -9 52 13 2 11 -6 20 -23 27 -30 11 -24 34 7 24 14 -4 18 -2
14 5 -8 12 -39 15 -49 4z"/>
<path d="M6972 917 c-13 -15 -4 -31 21 -40 28 -10 21 -30 -9 -23 -17 5 -23 3
-19 -4 9 -15 52 -12 58 4 6 16 -11 36 -30 36 -7 0 -13 7 -13 16 0 11 6 14 21
9 15 -5 19 -4 15 4 -10 15 -31 14 -44 -2z"/>
<path d="M7048 905 c-19 -42 25 -86 55 -56 9 9 5 11 -12 9 -13 -2 -26 3 -28
10 -3 8 6 12 26 12 27 0 30 2 22 23 -12 33 -48 34 -63 2z m50 -3 c2 -7 -6 -12
-17 -12 -21 0 -27 11 -14 24 9 9 26 2 31 -12z"/>
<path d="M7142 918 c-27 -27 -7 -78 29 -78 10 0 21 5 24 10 4 7 -2 9 -18 5
-17 -5 -26 -2 -30 9 -5 12 0 16 23 16 18 0 30 5 30 13 0 16 -20 37 -35 37 -6
0 -16 -5 -23 -12z m34 -26 c-22 -5 -30 3 -21 18 5 8 11 7 22 -2 15 -12 14 -13
-1 -16z"/>
<path d="M7260 869 c0 -33 4 -59 10 -59 6 0 10 9 10 20 0 13 5 18 15 14 21 -8
45 14 45 41 0 29 -18 43 -52 43 -27 0 -28 -2 -28 -59z m55 15 c0 -19 -5 -29
-15 -29 -16 0 -25 28 -16 51 10 25 31 10 31 -22z"/>
<path d="M7405 919 c-4 -6 0 -9 10 -7 10 2 20 -2 22 -9 2 -6 -6 -13 -19 -15
-15 -2 -23 -10 -23 -23 0 -15 8 -21 33 -23 30 -3 32 -2 32 30 0 47 -36 78 -55
47z m35 -54 c0 -8 -7 -15 -15 -15 -8 0 -15 7 -15 15 0 8 7 15 15 15 8 0 15 -7
15 -15z"/>
<path d="M7491 916 c-7 -8 -11 -27 -9 -43 2 -24 8 -28 32 -28 17 0 31 6 34 15
5 13 3 13 -11 1 -21 -17 -47 -7 -47 17 0 24 25 48 35 32 3 -5 11 -10 17 -10 7
0 6 6 -2 15 -16 19 -34 19 -49 1z"/>
<path d="M7571 908 c-16 -43 23 -88 50 -61 6 6 1 9 -12 9 -12 -1 -24 5 -26 12
-3 8 6 12 26 12 34 0 36 2 21 31 -15 26 -49 24 -59 -3z m47 -6 c2 -7 -6 -12
-17 -12 -21 0 -27 11 -14 24 9 9 26 2 31 -12z"/>
<path d="M7662 917 c-13 -15 -4 -31 21 -40 28 -10 21 -30 -9 -23 -17 5 -23 3
-19 -4 9 -15 52 -12 58 4 6 16 -11 36 -30 36 -7 0 -13 7 -13 16 0 11 6 14 21
9 15 -5 19 -4 15 4 -10 15 -31 14 -44 -2z"/>
<path d="M7783 885 c0 -27 2 -38 4 -22 2 15 2 37 0 50 -2 12 -4 0 -4 -28z"/>
<path d="M7821 881 l2 -46 6 40 c4 26 11 40 21 40 10 0 17 -14 21 -40 l7 -40
-2 45 c-1 42 -3 45 -28 46 -27 1 -28 -1 -27 -45z"/>
<path d="M8041 916 c-7 -8 -11 -27 -9 -43 3 -24 8 -28 33 -28 25 0 30 4 33 28
4 30 -12 57 -33 57 -7 0 -18 -6 -24 -14z m47 -40 c-2 -13 -10 -21 -23 -21 -23
0 -32 30 -14 51 16 19 41 -1 37 -30z"/>
<path d="M8120 884 c0 -24 5 -44 10 -44 6 0 10 15 10 34 0 60 33 53 43 -9 3
-19 4 -13 3 15 -1 43 -2 45 -33 47 -33 1 -33 1 -33 -43z"/>
<path d="M8311 908 c-17 -46 21 -86 54 -58 18 15 19 52 3 68 -19 19 -48 14
-57 -10z m53 -11 c8 -12 7 -21 -6 -33 -20 -20 -38 -11 -38 20 0 39 23 46 44
13z"/>
<path d="M8402 880 c1 -40 2 -41 5 -10 8 60 43 64 43 4 0 -19 5 -34 10 -34 13
0 13 46 0 71 -7 12 -20 18 -35 17 -23 -2 -25 -6 -23 -48z"/>
<path d="M8721 881 l2 -46 6 40 c4 26 11 40 21 40 10 0 17 -14 21 -40 l7 -40
-2 45 c-1 42 -3 45 -28 46 -27 1 -28 -1 -27 -45z"/>
<path d="M9042 918 c-16 -16 -15 -53 3 -68 33 -28 71 12 54 58 -9 24 -38 29
-57 10z m43 -34 c0 -19 -6 -30 -17 -32 -21 -4 -34 34 -17 54 18 22 34 11 34
-22z"/>
<path d="M9122 893 c13 -51 25 -62 34 -29 7 30 24 35 24 7 0 -21 15 -36 23
-24 3 5 8 26 11 48 l5 40 -13 -40 -13 -40 -8 38 c-4 20 -11 37 -15 37 -4 0
-12 -17 -17 -37 l-10 -38 -8 38 c-4 20 -11 37 -15 37 -5 0 -4 -17 2 -37z"/>
<path d="M9411 916 c-7 -8 -11 -27 -9 -43 3 -24 8 -28 33 -28 25 0 30 4 33 28
4 30 -12 57 -33 57 -7 0 -18 -6 -24 -14z m47 -40 c-2 -13 -10 -21 -23 -21 -23
0 -32 30 -14 51 16 19 41 -1 37 -30z"/>
<path d="M9501 916 c-7 -8 -11 -27 -9 -43 3 -24 8 -28 33 -28 25 0 30 4 33 28
4 30 -12 57 -33 57 -7 0 -18 -6 -24 -14z m47 -40 c-2 -13 -10 -21 -23 -21 -23
0 -32 30 -14 51 16 19 41 -1 37 -30z"/>
<path d="M9592 918 c-29 -29 0 -84 37 -70 8 3 12 -1 9 -9 -3 -8 -16 -13 -29
-11 -17 2 -21 0 -12 -9 6 -6 19 -9 29 -7 15 3 20 14 22 58 3 52 1 56 -21 58
-13 1 -29 -4 -35 -10z m46 -32 c-4 -25 -36 -34 -44 -12 -8 21 13 46 32 39 8
-3 14 -15 12 -27z"/>
<path d="M9718 905 c-19 -42 25 -86 55 -56 9 9 5 11 -12 9 -13 -2 -26 3 -28
10 -3 8 6 12 26 12 27 0 30 2 22 23 -12 33 -48 34 -63 2z m50 -3 c2 -7 -6 -12
-17 -12 -21 0 -27 11 -14 24 9 9 26 2 31 -12z"/>
<path d="M9851 865 c1 -33 4 -50 6 -38 3 14 9 20 19 16 20 -7 44 15 44 42 0
28 -19 45 -48 42 -20 -1 -22 -6 -21 -62z m54 6 c-9 -29 -39 -23 -43 8 -2 13 2
27 10 32 19 12 41 -14 33 -40z"/>
<path d="M9942 880 c1 -40 2 -41 5 -11 3 19 12 41 21 47 15 12 15 13 -5 11
-21 -1 -23 -6 -21 -47z"/>
<path d="M9998 905 c-19 -42 25 -86 55 -56 9 9 5 11 -12 9 -13 -2 -26 3 -28
10 -3 8 6 12 26 12 27 0 30 2 22 23 -12 33 -48 34 -63 2z m50 -3 c2 -7 -6 -12
-17 -12 -21 0 -27 11 -14 24 9 9 26 2 31 -12z"/>
<path d="M10087 923 c-14 -14 -6 -34 18 -43 35 -13 33 -34 -2 -25 -21 5 -25 4
-17 -5 16 -17 48 -8 52 13 3 12 -4 20 -17 24 -12 3 -21 12 -21 20 0 10 6 12
21 8 15 -5 19 -4 15 4 -8 12 -39 15 -49 4z"/>
<path d="M10172 918 c-27 -27 -7 -78 29 -78 10 0 21 5 24 10 4 7 -2 9 -18 5
-17 -5 -26 -2 -30 9 -5 12 0 16 23 16 18 0 30 5 30 13 0 16 -20 37 -35 37 -6
0 -16 -5 -23 -12z m34 -26 c-22 -5 -30 3 -21 18 5 8 11 7 22 -2 15 -12 14 -13
-1 -16z"/>
<path d="M10250 884 c0 -24 5 -44 10 -44 6 0 10 15 10 34 0 60 33 53 43 -9 3
-19 4 -13 3 15 -1 43 -2 45 -33 47 -33 1 -33 1 -33 -43z"/>
<path d="M10402 917 c-13 -15 -4 -31 21 -40 28 -10 21 -30 -9 -23 -17 5 -23 3
-19 -4 9 -15 52 -12 58 4 6 16 -11 36 -30 36 -7 0 -13 7 -13 16 0 11 6 14 21
9 15 -5 19 -4 15 4 -10 15 -31 14 -44 -2z"/>
<path d="M10527 885 c12 -36 13 -49 3 -60 -9 -11 -9 -15 -1 -15 13 0 36 49 46
96 4 23 3 25 -4 9 -5 -11 -13 -29 -17 -40 -6 -17 -8 -14 -16 18 -6 20 -14 37
-18 37 -5 0 -2 -20 7 -45z"/>
<path d="M10601 908 c-17 -46 21 -86 54 -58 18 15 19 52 3 68 -19 19 -48 14
-57 -10z m53 -11 c8 -12 7 -21 -6 -33 -20 -20 -38 -11 -38 20 0 39 23 46 44
13z"/>
<path d="M10693 890 c2 -43 3 -45 35 -48 32 -3 32 -3 32 43 0 28 -4 44 -10 40
-5 -3 -10 -22 -10 -41 0 -39 -27 -48 -34 -11 -13 57 -14 59 -13 17z"/>
<path d="M10971 908 c-16 -43 23 -88 50 -61 6 6 1 9 -12 9 -12 -1 -24 5 -26
12 -3 8 6 12 26 12 34 0 36 2 21 31 -15 26 -49 24 -59 -3z m47 -6 c2 -7 -6
-12 -17 -12 -21 0 -27 11 -14 24 9 9 26 2 31 -12z"/>
<path d="M11143 885 c0 -27 2 -38 4 -22 2 15 2 37 0 50 -2 12 -4 0 -4 -28z"/>
<path d="M11177 923 c-14 -14 -6 -34 18 -43 35 -13 33 -34 -2 -25 -21 5 -25 4
-17 -5 16 -17 48 -8 52 13 3 12 -4 20 -17 24 -12 3 -21 12 -21 20 0 10 6 12
21 8 15 -5 19 -4 15 4 -8 12 -39 15 -49 4z"/>
<path d="M11552 918 c-16 -16 -15 -53 3 -68 33 -28 71 12 54 58 -9 24 -38 29
-57 10z m43 -34 c0 -19 -6 -30 -17 -32 -21 -4 -34 34 -17 54 18 22 34 11 34
-22z"/>
<path d="M11632 893 c13 -51 25 -62 34 -29 7 30 24 35 24 7 0 -21 15 -36 23
-24 3 5 8 26 11 48 l5 40 -13 -40 -13 -40 -8 38 c-4 20 -11 37 -15 37 -4 0
-12 -17 -17 -37 l-10 -38 -8 38 c-4 20 -11 37 -15 37 -5 0 -4 -17 2 -37z"/>
<path d="M11798 905 c-8 -19 -9 -31 -1 -43 13 -21 55 -22 61 -2 4 13 3 13 -11
2 -21 -18 -37 -7 -37 23 0 30 16 41 37 23 14 -11 16 -11 11 2 -9 27 -47 24
-60 -5z"/>
<path d="M11885 921 c-4 -7 2 -10 16 -8 29 3 36 -21 7 -25 -15 -2 -24 -11 -26
-26 -3 -20 0 -22 28 -20 30 2 31 4 28 43 -2 32 -7 41 -25 43 -11 2 -24 -2 -28
-7z m45 -51 c0 -12 -28 -25 -36 -17 -9 9 6 27 22 27 8 0 14 -5 14 -10z"/>
<path d="M11971 881 l2 -46 6 40 c4 26 11 40 21 40 10 0 17 -14 21 -40 l7 -40
-2 45 c-1 42 -3 45 -28 46 -27 1 -28 -1 -27 -45z"/>
<path d="M12107 885 c12 -36 13 -49 3 -60 -9 -11 -9 -15 -1 -15 13 0 36 49 46
96 4 23 3 25 -4 9 -5 -11 -13 -29 -17 -40 -6 -17 -8 -14 -16 18 -6 20 -14 37
-18 37 -5 0 -2 -20 7 -45z"/>
<path d="M12181 908 c-17 -46 21 -86 54 -58 18 15 19 52 3 68 -19 19 -48 14
-57 -10z m53 -11 c8 -12 7 -21 -6 -33 -20 -20 -38 -11 -38 20 0 39 23 46 44
13z"/>
<path d="M12273 890 c2 -43 3 -45 35 -48 32 -3 32 -3 32 43 0 28 -4 44 -10 40
-5 -3 -10 -22 -10 -41 0 -39 -27 -48 -34 -11 -13 57 -14 59 -13 17z"/>
<path d="M6903 883 c9 -2 23 -2 30 0 6 3 -1 5 -18 5 -16 0 -22 -2 -12 -5z"/>
<path d="M8505 850 c-3 -5 -1 -10 4 -10 6 0 11 5 11 10 0 6 -2 10 -4 10 -3 0
-8 -4 -11 -10z"/>
<path d="M11325 850 c-3 -5 -1 -10 4 -10 6 0 11 5 11 10 0 6 -2 10 -4 10 -3 0
-8 -4 -11 -10z"/>
<path d="M971 725 c-1 -60 -1 -61 29 -63 25 -2 31 2 36 24 8 33 -6 59 -32 59
-10 0 -22 9 -26 20 -3 11 -6 -7 -7 -40z m54 -34 c-9 -29 -39 -23 -43 8 -2 13
2 27 10 32 19 12 41 -14 33 -40z"/>
<path d="M1392 720 c1 -54 2 -58 7 -25 4 26 11 40 21 40 10 0 17 -14 21 -40
l7 -40 -2 45 c-1 38 -4 45 -21 45 -11 0 -23 9 -27 20 -3 11 -6 -9 -6 -45z"/>
<path d="M1670 760 c0 -17 -5 -19 -25 -14 -20 5 -27 2 -34 -17 -14 -38 1 -64
38 -65 l31 -1 0 59 c0 32 -2 58 -5 58 -3 0 -5 -9 -5 -20z m-9 -41 c9 -17 8
-25 -4 -36 -19 -19 -37 -9 -37 21 0 40 23 49 41 15z"/>
<path d="M1973 720 c0 -36 2 -50 4 -32 2 17 2 47 0 65 -2 17 -4 3 -4 -33z"/>
<path d="M2223 766 c-11 -19 -4 -106 8 -106 5 0 9 18 9 40 0 25 5 40 13 40 9
0 8 3 -2 9 -7 5 -10 14 -7 20 4 6 3 11 -3 11 -5 0 -14 -7 -18 -14z"/>
<path d="M2813 720 c0 -36 2 -50 4 -32 2 17 2 47 0 65 -2 17 -4 3 -4 -33z"/>
<path d="M3327 773 c-14 -13 -7 -25 8 -13 29 24 47 -9 20 -37 -9 -8 -14 -18
-11 -21 3 -2 14 6 25 19 14 17 17 29 10 41 -10 18 -40 24 -52 11z"/>
<path d="M3444 763 c3 -10 10 -37 16 -61 12 -49 26 -47 36 3 8 46 21 44 29 -5
9 -52 21 -51 35 3 6 23 13 50 16 60 3 9 1 17 -4 17 -5 0 -13 -21 -19 -47 l-9
-48 -13 48 c-8 26 -17 47 -21 47 -4 0 -13 -21 -21 -47 l-13 -48 -9 48 c-6 26
-14 47 -19 47 -5 0 -7 -8 -4 -17z"/>
<path d="M3683 720 c0 -36 2 -50 4 -32 2 17 2 47 0 65 -2 17 -4 3 -4 -33z"/>
<path d="M3723 720 c0 -36 2 -50 4 -32 2 17 2 47 0 65 -2 17 -4 3 -4 -33z"/>
<path d="M3880 731 c0 -50 -15 -75 -31 -50 -4 7 -11 10 -14 7 -11 -10 4 -28
24 -28 9 0 22 5 29 12 14 14 16 108 2 108 -5 0 -10 -22 -10 -49z"/>
<path d="M4177 773 c-17 -17 -5 -45 23 -56 18 -7 30 -19 30 -29 0 -21 -30 -24
-49 -5 -11 10 -13 9 -9 -3 3 -10 17 -15 39 -15 28 0 35 4 37 23 3 18 -4 26
-32 37 -24 10 -34 20 -30 30 7 17 30 20 39 5 3 -5 11 -10 17 -10 7 0 6 6 -2
15 -13 15 -51 20 -63 8z"/>
<path d="M4860 761 c0 -14 -5 -18 -18 -14 -25 6 -44 -20 -40 -54 3 -24 8 -28
36 -29 l32 -1 0 59 c0 32 -2 58 -5 58 -3 0 -5 -9 -5 -19z m-5 -70 c-4 -13 -13
-21 -23 -19 -21 4 -27 34 -11 54 11 13 14 13 27 1 9 -9 11 -23 7 -36z"/>
<path d="M5300 720 c0 -33 4 -60 10 -60 6 0 10 15 10 34 0 60 35 56 43 -4 3
-27 4 -25 3 10 -1 40 -4 45 -23 44 -16 0 -23 5 -23 18 0 10 -4 18 -10 18 -6 0
-10 -27 -10 -60z"/>
<path d="M5792 746 c8 -24 8 -47 0 -78 -10 -38 -9 -41 4 -24 21 29 16 136 -6
136 -5 0 -3 -15 2 -34z"/>
<path d="M5932 733 c-2 -56 -14 -72 -39 -51 -14 11 -16 11 -11 -2 6 -20 47
-25 54 -7 3 8 3 36 1 63 l-3 49 -2 -52z"/>
<path d="M6763 766 c-11 -19 -4 -106 8 -106 5 0 9 18 9 40 0 25 5 40 13 40 9
0 8 3 -2 9 -7 5 -10 14 -7 20 4 6 3 11 -3 11 -5 0 -14 -7 -18 -14z"/>
<path d="M6818 763 c-2 -10 -1 -38 3 -63 l6 -45 1 43 c1 26 7 42 15 42 8 0 7
4 -3 10 -13 9 -13 11 0 20 13 8 13 10 -1 10 -9 0 -18 -8 -21 -17z"/>
<path d="M8390 760 c0 -13 -5 -18 -15 -14 -21 8 -45 -14 -45 -41 0 -29 18 -43
53 -43 26 0 27 2 27 59 0 33 -4 59 -10 59 -5 0 -10 -9 -10 -20z m-5 -56 c0
-19 -5 -29 -15 -29 -16 0 -25 28 -16 51 10 25 31 10 31 -22z"/>
<path d="M8523 720 c0 -36 2 -50 4 -32 2 17 2 47 0 65 -2 17 -4 3 -4 -33z"/>
<path d="M8563 720 c0 -36 2 -50 4 -32 2 17 2 47 0 65 -2 17 -4 3 -4 -33z"/>
<path d="M9331 724 l-1 -61 33 1 c31 1 32 3 32 41 0 36 -2 40 -25 40 -16 0
-27 7 -32 20 -3 11 -6 -7 -7 -41z m57 -23 c-4 -32 -34 -40 -43 -11 -8 25 11
51 31 43 9 -3 14 -16 12 -32z"/>
<path d="M9782 768 c-7 -7 -12 -28 -12 -48 0 -20 5 -41 12 -48 17 -17 53 -15
68 3 15 18 7 19 -19 3 -28 -17 -53 6 -49 45 4 42 31 57 57 33 12 -11 21 -15
21 -10 0 17 -23 34 -45 34 -12 0 -26 -5 -33 -12z"/>
<path d="M10280 720 c0 -33 4 -60 10 -60 6 0 10 27 10 60 0 33 -4 60 -10 60
-6 0 -10 -27 -10 -60z"/>
<path d="M10732 733 c-2 -56 -14 -72 -39 -51 -14 11 -16 11 -11 -2 6 -20 47
-25 54 -7 3 8 3 36 1 63 l-3 49 -2 -52z"/>
<path d="M11027 774 c-4 -4 -7 -17 -7 -30 0 -16 9 -25 30 -33 17 -5 30 -15 30
-21 0 -16 -30 -24 -43 -11 -17 17 -31 13 -17 -5 19 -22 64 -14 68 13 2 16 -5
26 -27 38 -17 8 -31 20 -31 26 0 17 29 22 47 8 14 -12 16 -12 11 1 -5 16 -49
26 -61 14z"/>
<path d="M11703 720 c0 -36 2 -51 4 -35 9 62 43 69 43 9 0 -19 5 -34 10 -34
16 0 12 66 -5 80 -8 7 -21 10 -29 7 -10 -4 -16 2 -19 16 -2 12 -4 -7 -4 -43z"/>
<path d="M12280 760 c0 -17 -5 -19 -25 -14 -20 5 -27 2 -34 -17 -14 -38 1 -64
38 -65 l31 -1 0 59 c0 32 -2 58 -5 58 -3 0 -5 -9 -5 -20z m-9 -41 c9 -17 8
-25 -4 -36 -19 -19 -37 -9 -37 21 0 40 23 49 41 15z"/>
<path d="M1238 758 c-8 -24 8 -92 22 -96 12 -4 13 -2 3 9 -15 15 -17 51 -4 65
6 5 4 14 -4 21 -10 9 -15 9 -17 1z"/>
<path d="M1332 754 c-7 -8 -8 -15 -2 -19 6 -3 10 -22 10 -41 0 -26 4 -34 18
-33 10 0 12 3 5 6 -15 5 -18 70 -4 75 5 2 4 8 -3 14 -8 8 -15 7 -24 -2z"/>
<path d="M1792 754 c-7 -8 -8 -15 -2 -19 6 -3 10 -22 10 -41 0 -26 4 -34 18
-33 10 0 12 3 5 6 -15 5 -18 70 -4 75 5 2 4 8 -3 14 -8 8 -15 7 -24 -2z"/>
<path d="M3058 758 c-8 -24 8 -92 22 -96 12 -4 13 -2 3 9 -15 15 -17 66 -4 71
5 2 3 8 -4 15 -10 9 -15 9 -17 1z"/>
<path d="M4548 758 c-8 -24 8 -92 22 -96 12 -4 13 -2 3 9 -15 15 -17 66 -4 71
5 2 3 8 -4 15 -10 9 -15 9 -17 1z"/>
<path d="M5249 758 c-5 -51 9 -98 29 -98 13 0 14 2 4 9 -8 5 -13 23 -12 42 3
49 1 59 -10 59 -5 0 -11 -6 -11 -12z"/>
<path d="M6569 758 c-5 -51 9 -98 29 -98 13 0 14 2 4 9 -8 5 -13 23 -12 42 3
49 1 59 -10 59 -5 0 -11 -6 -11 -12z"/>
<path d="M7259 758 c-5 -51 9 -98 29 -98 13 0 14 2 4 9 -8 5 -13 23 -12 42 3
49 1 59 -10 59 -5 0 -11 -6 -11 -12z"/>
<path d="M7632 754 c-7 -8 -8 -15 -2 -19 6 -3 10 -22 10 -41 0 -26 4 -34 18
-33 10 0 12 3 5 6 -15 5 -18 70 -4 75 5 2 4 8 -3 14 -8 8 -15 7 -24 -2z"/>
<path d="M7842 754 c-7 -8 -8 -15 -2 -19 6 -3 10 -22 10 -41 0 -26 4 -34 18
-33 10 0 12 3 5 6 -15 5 -18 70 -4 75 5 2 4 8 -3 14 -8 8 -15 7 -24 -2z"/>
<path d="M8028 758 c-8 -24 8 -92 22 -96 12 -4 13 -2 3 9 -15 15 -17 66 -4 71
5 2 3 8 -4 15 -10 9 -15 9 -17 1z"/>
<path d="M8768 758 c-8 -24 8 -92 22 -96 12 -4 13 -2 3 9 -15 15 -17 66 -4 71
5 2 3 8 -4 15 -10 9 -15 9 -17 1z"/>
<path d="M8908 758 c-8 -24 8 -92 22 -96 12 -4 13 -2 3 9 -15 15 -17 66 -4 71
5 2 3 8 -4 15 -10 9 -15 9 -17 1z"/>
<path d="M9542 754 c-7 -8 -8 -15 -2 -19 6 -3 10 -22 10 -41 0 -26 4 -34 18
-33 10 0 12 3 5 6 -15 5 -18 70 -4 75 5 2 4 8 -3 14 -8 8 -15 7 -24 -2z"/>
<path d="M11389 758 c-5 -51 9 -98 29 -98 13 0 14 2 4 9 -8 5 -13 23 -12 42 3
49 1 59 -10 59 -5 0 -11 -6 -11 -12z"/>
<path d="M11648 758 c-8 -24 8 -92 22 -96 12 -4 13 -2 3 9 -15 15 -17 66 -4
71 5 2 3 8 -4 15 -10 9 -15 9 -17 1z"/>
<path d="M802 737 c-13 -15 -4 -31 21 -40 28 -10 21 -30 -9 -23 -17 5 -23 3
-19 -4 9 -15 52 -12 58 4 6 16 -11 36 -30 36 -7 0 -13 7 -13 16 0 11 6 14 21
9 15 -5 19 -4 15 4 -10 15 -31 14 -44 -2z"/>
<path d="M875 736 c-14 -31 7 -71 38 -72 26 -1 27 1 26 45 l-2 46 -6 -40 c-4
-26 -11 -40 -21 -40 -10 0 -17 14 -21 40 -4 32 -7 36 -14 21z"/>
<path d="M1060 703 c0 -53 18 -57 22 -5 2 20 8 37 13 37 6 0 11 -17 13 -37 4
-48 20 -49 24 -3 2 20 8 35 13 35 6 0 11 -15 13 -35 4 -44 22 -46 22 -2 0 47
-9 54 -67 54 l-53 -1 0 -43z"/>
<path d="M1203 705 c0 -27 2 -38 4 -22 2 15 2 37 0 50 -2 12 -4 0 -4 -28z"/>
<path d="M1481 728 c-16 -43 23 -88 50 -61 6 6 1 9 -12 9 -12 -1 -24 5 -26 12
-3 8 6 12 26 12 34 0 36 2 21 31 -15 26 -49 24 -59 -3z m47 -6 c2 -7 -6 -12
-17 -12 -21 0 -27 11 -14 24 9 9 26 2 31 -12z"/>
<path d="M1712 738 c-27 -27 -7 -78 29 -78 10 0 21 5 24 10 4 7 -2 9 -18 5
-17 -5 -26 -2 -30 9 -5 12 0 16 23 16 18 0 30 5 30 13 0 16 -20 37 -35 37 -6
0 -16 -5 -23 -12z m34 -26 c-22 -5 -30 3 -21 18 5 8 11 7 22 -2 15 -12 14 -13
-1 -16z"/>
<path d="M1855 739 c-4 -6 0 -9 10 -7 10 2 20 -2 22 -9 2 -6 -6 -13 -19 -15
-15 -2 -23 -10 -23 -23 0 -15 8 -21 33 -23 30 -3 32 -2 32 30 0 47 -36 78 -55
47z m35 -54 c0 -8 -7 -15 -15 -15 -8 0 -15 7 -15 15 0 8 7 15 15 15 8 0 15 -7
15 -15z"/>
<path d="M1933 705 c0 -27 2 -38 4 -22 2 15 2 37 0 50 -2 12 -4 0 -4 -28z"/>
<path d="M2012 737 c-13 -15 -4 -31 21 -40 28 -10 21 -30 -9 -23 -17 5 -23 3
-19 -4 9 -15 52 -12 58 4 6 16 -11 36 -30 36 -7 0 -13 7 -13 16 0 11 6 14 21
9 15 -5 19 -4 15 4 -10 15 -31 14 -44 -2z"/>
<path d="M2131 728 c-17 -46 21 -86 54 -58 18 15 19 52 3 68 -19 19 -48 14
-57 -10z m53 -11 c8 -12 7 -21 -6 -33 -20 -20 -38 -11 -38 20 0 39 23 46 44
13z"/>
<path d="M2325 739 c-4 -6 0 -9 10 -7 10 2 20 -2 22 -9 2 -6 -6 -13 -19 -15
-15 -2 -23 -10 -23 -23 0 -15 8 -21 33 -23 30 -3 32 -2 32 30 0 47 -36 78 -55
47z m35 -54 c0 -8 -7 -15 -15 -15 -8 0 -15 7 -15 15 0 8 7 15 15 15 8 0 15 -7
15 -15z"/>
<path d="M2401 700 c2 -34 3 -38 6 -15 10 64 38 66 53 3 l8 -33 1 35 c1 46 -9
61 -42 58 -25 -2 -27 -5 -26 -48z"/>
<path d="M2540 740 c-12 -8 -10 -10 9 -8 31 4 40 -19 9 -24 -15 -2 -23 -10
-23 -23 0 -16 7 -20 33 -22 28 -1 32 2 32 24 0 51 -27 75 -60 53z m40 -49 c0
-14 -18 -23 -30 -16 -6 4 -8 11 -5 16 8 12 35 12 35 0z"/>
<path d="M2621 685 c1 -33 4 -51 7 -40 5 13 16 20 32 20 20 0 26 6 28 28 4 36
-13 57 -44 55 -23 -2 -24 -6 -23 -63z m57 11 c-4 -28 -35 -33 -43 -6 -9 29 12
55 32 38 8 -6 13 -21 11 -32z"/>
<path d="M2710 689 c0 -33 4 -59 10 -59 6 0 10 9 10 20 0 13 5 18 15 14 21 -8
45 14 45 41 0 29 -18 43 -52 43 -27 0 -28 -2 -28 -59z m55 15 c0 -19 -5 -29
-15 -29 -16 0 -25 28 -16 51 10 25 31 10 31 -22z"/>
<path d="M2840 705 c0 -25 5 -45 10 -45 6 0 10 20 10 45 0 25 -4 45 -10 45 -5
0 -10 -20 -10 -45z"/>
<path d="M2891 736 c-7 -8 -11 -27 -9 -43 2 -24 8 -28 32 -28 17 0 31 6 34 15
5 13 3 13 -11 1 -21 -17 -47 -7 -47 17 0 24 25 48 35 32 3 -5 11 -10 17 -10 7
0 6 6 -2 15 -16 19 -34 19 -49 1z"/>
<path d="M2975 741 c-4 -7 2 -10 16 -8 12 1 24 -4 26 -10 3 -8 -4 -13 -15 -13
-24 0 -43 -22 -33 -38 4 -7 20 -11 35 -10 25 2 27 5 24 43 -2 32 -7 41 -25 43
-11 2 -24 -2 -28 -7z m43 -53 c-7 -19 -38 -22 -38 -4 0 10 9 16 21 16 12 0 19
-5 17 -12z"/>
<path d="M3113 705 c0 -27 2 -38 4 -22 2 15 2 37 0 50 -2 12 -4 0 -4 -28z"/>
<path d="M3152 738 c-16 -16 -15 -53 3 -68 33 -28 71 12 54 58 -9 24 -38 29
-57 10z m43 -34 c0 -19 -6 -30 -17 -32 -21 -4 -34 34 -17 54 18 22 34 11 34
-22z"/>
<path d="M3241 701 l2 -46 6 40 c4 26 11 40 21 40 10 0 17 -14 21 -40 l7 -40
-2 45 c-1 42 -3 45 -28 46 -27 1 -28 -1 -27 -45z"/>
<path d="M3601 736 c-7 -8 -11 -27 -9 -43 2 -21 9 -29 27 -31 13 -2 28 1 34 7
7 7 2 10 -18 8 -15 -1 -30 4 -32 11 -3 8 6 12 26 12 32 0 41 16 19 38 -16 16
-33 15 -47 -2z m39 -17 c0 -5 -9 -9 -20 -9 -22 0 -27 16 -7 23 15 5 27 -1 27
-14z"/>
<path d="M3930 740 c-12 -8 -10 -10 9 -8 31 4 40 -19 9 -24 -15 -2 -23 -10
-23 -23 0 -16 7 -20 33 -22 28 -1 32 2 32 24 0 51 -27 75 -60 53z m40 -49 c0
-14 -18 -23 -30 -16 -6 4 -8 11 -5 16 8 12 35 12 35 0z"/>
<path d="M4001 746 c-2 -18 23 -86 31 -86 8 0 17 19 33 69 5 15 4 21 -3 17 -6
-3 -14 -21 -18 -39 l-7 -32 -18 40 c-10 22 -18 36 -18 31z"/>
<path d="M4095 739 c-4 -6 0 -9 10 -7 10 2 20 -2 22 -9 2 -6 -6 -13 -19 -15
-15 -2 -23 -10 -23 -23 0 -15 8 -21 33 -23 30 -3 32 -2 32 30 0 47 -36 78 -55
47z m35 -54 c0 -8 -7 -15 -15 -15 -8 0 -15 7 -15 15 0 8 7 15 15 15 8 0 15 -7
15 -15z"/>
<path d="M4271 728 c-16 -44 23 -88 52 -59 9 9 5 11 -13 9 -20 -2 -26 2 -28
21 -5 30 13 50 30 33 17 -17 33 -15 18 3 -18 22 -49 18 -59 -7z"/>
<path d="M4362 700 c1 -40 2 -41 5 -11 3 19 12 41 21 47 15 12 15 13 -5 11
-21 -1 -23 -6 -21 -47z"/>
<path d="M4410 705 c0 -25 5 -45 10 -45 6 0 10 20 10 45 0 25 -4 45 -10 45 -5
0 -10 -20 -10 -45z"/>
<path d="M4451 685 c1 -33 4 -51 7 -40 5 13 16 20 32 20 20 0 26 6 28 28 4 36
-13 57 -44 55 -23 -2 -24 -6 -23 -63z m57 11 c-4 -28 -35 -33 -43 -6 -9 29 12
55 32 38 8 -6 13 -21 11 -32z"/>
<path d="M4643 705 c0 -27 2 -38 4 -22 2 15 2 37 0 50 -2 12 -4 0 -4 -28z"/>
<path d="M4687 743 c-14 -14 -6 -34 18 -45 28 -12 23 -32 -6 -25 -11 3 -19 1
-19 -5 0 -5 12 -8 27 -6 38 4 43 35 8 48 -30 11 -24 34 7 24 14 -4 18 -2 14 5
-8 12 -39 15 -49 4z"/>
<path d="M4898 724 c-14 -31 -1 -57 30 -62 29 -4 49 36 33 67 -16 29 -49 27
-63 -5z m47 -20 c0 -19 -5 -29 -15 -29 -16 0 -25 28 -16 51 10 25 31 10 31
-22z"/>
<path d="M4993 705 c0 -27 2 -38 4 -22 2 15 2 37 0 50 -2 12 -4 0 -4 -28z"/>
<path d="M5020 704 c0 -24 5 -44 10 -44 6 0 10 15 10 34 0 60 33 53 43 -9 3
-19 4 -13 3 15 -1 43 -2 45 -33 47 -33 1 -33 1 -33 -43z"/>
<path d="M5122 738 c-29 -29 0 -84 37 -70 8 3 12 -1 9 -9 -3 -8 -16 -13 -29
-11 -17 2 -21 0 -12 -9 6 -6 19 -9 29 -7 15 3 20 14 22 58 3 52 1 56 -21 58
-13 1 -29 -4 -35 -10z m46 -32 c-4 -25 -36 -34 -44 -12 -8 21 13 46 32 39 8
-3 14 -15 12 -27z"/>
<path d="M5398 725 c-19 -42 25 -86 55 -56 9 9 5 11 -12 9 -13 -2 -26 3 -28
10 -3 8 6 12 26 12 27 0 30 2 22 23 -12 33 -48 34 -63 2z m50 -3 c2 -7 -6 -12
-17 -12 -21 0 -27 11 -14 24 9 9 26 2 31 -12z"/>
<path d="M5487 743 c-14 -14 -6 -34 18 -43 35 -13 33 -34 -2 -25 -21 5 -25 4
-17 -5 16 -17 48 -8 52 13 3 12 -4 20 -17 24 -12 3 -21 12 -21 20 0 10 6 12
21 8 15 -5 19 -4 15 4 -8 12 -39 15 -49 4z"/>
<path d="M5572 738 c-27 -27 -7 -78 29 -78 10 0 21 5 24 10 4 7 -2 9 -18 5
-17 -5 -26 -2 -30 9 -5 12 0 16 23 16 18 0 30 5 30 13 0 16 -20 37 -35 37 -6
0 -16 -5 -23 -12z m34 -26 c-22 -5 -30 3 -21 18 5 8 11 7 22 -2 15 -12 14 -13
-1 -16z"/>
<path d="M5975 739 c-4 -6 0 -9 10 -7 10 2 20 -2 22 -9 2 -6 -6 -13 -19 -15
-15 -2 -23 -10 -23 -23 0 -15 8 -21 33 -23 30 -3 32 -2 32 30 0 47 -36 78 -55
47z m35 -54 c0 -8 -7 -15 -15 -15 -8 0 -15 7 -15 15 0 8 7 15 15 15 8 0 15 -7
15 -15z"/>
<path d="M6057 705 c8 -25 18 -45 22 -45 10 0 34 80 27 88 -3 3 -9 -9 -12 -27
-9 -44 -21 -47 -28 -6 -4 19 -11 35 -16 35 -5 0 -2 -20 7 -45z"/>
<path d="M6135 741 c-4 -7 2 -10 16 -8 12 1 24 -4 26 -10 3 -8 -4 -13 -15 -13
-24 0 -43 -22 -33 -38 4 -7 20 -11 35 -10 25 2 27 5 24 43 -2 32 -7 41 -25 43
-11 2 -24 -2 -28 -7z m43 -53 c-7 -19 -38 -22 -38 -4 0 10 9 16 21 16 12 0 19
-5 17 -12z"/>
<path d="M6217 743 c-14 -14 -6 -34 18 -43 35 -13 33 -34 -2 -25 -21 5 -25 4
-17 -5 16 -17 48 -8 52 13 3 12 -4 20 -17 24 -12 3 -21 12 -21 20 0 10 6 12
21 8 15 -5 19 -4 15 4 -8 12 -39 15 -49 4z"/>
<path d="M6302 738 c-16 -16 -15 -53 3 -68 18 -15 47 -10 53 10 5 13 3 13 -11
1 -14 -11 -20 -11 -32 -1 -31 25 -7 67 28 49 15 -9 18 -8 15 3 -6 18 -40 22
-56 6z"/>
<path d="M6381 700 c2 -34 3 -37 6 -15 3 17 12 38 20 47 14 15 13 17 -6 15
-18 -1 -21 -7 -20 -47z"/>
<path d="M6443 705 c0 -27 2 -38 4 -22 2 15 2 37 0 50 -2 12 -4 0 -4 -28z"/>
<path d="M6481 685 c1 -33 4 -50 6 -38 3 14 9 20 19 16 20 -7 44 15 44 42 0
28 -19 45 -48 42 -20 -1 -22 -6 -21 -62z m54 6 c-9 -29 -39 -23 -43 8 -2 13 2
27 10 32 19 12 41 -14 33 -40z"/>
<path d="M6668 724 c-14 -31 -1 -57 30 -62 29 -4 49 36 33 67 -16 29 -49 27
-63 -5z m47 -20 c0 -19 -5 -29 -15 -29 -16 0 -25 28 -16 51 10 25 31 10 31
-22z"/>
<path d="M6872 738 c-27 -27 -7 -78 29 -78 10 0 21 5 24 10 4 7 -2 9 -18 5
-17 -5 -26 -2 -30 9 -5 12 0 16 23 16 18 0 30 5 30 13 0 16 -20 37 -35 37 -6
0 -16 -5 -23 -12z m34 -26 c-22 -5 -30 3 -21 18 5 8 11 7 22 -2 15 -12 14 -13
-1 -16z"/>
<path d="M6951 700 c2 -34 3 -37 6 -15 3 17 12 38 20 47 14 15 13 17 -6 15
-18 -1 -21 -7 -20 -47z"/>
<path d="M7017 743 c-14 -14 -6 -34 18 -45 28 -12 23 -32 -6 -25 -11 3 -19 1
-19 -5 0 -5 12 -8 27 -6 38 4 43 35 8 48 -30 11 -24 34 7 24 14 -4 18 -2 14 5
-8 12 -39 15 -49 4z"/>
<path d="M7133 705 c0 -27 2 -38 4 -22 2 15 2 37 0 50 -2 12 -4 0 -4 -28z"/>
<path d="M7171 701 l2 -46 6 40 c4 26 11 40 21 40 10 0 17 -14 21 -40 l7 -40
-2 45 c-1 42 -3 45 -28 46 -27 1 -28 -1 -27 -45z"/>
<path d="M7321 736 c-7 -8 -11 -27 -9 -43 2 -21 9 -29 27 -31 13 -2 28 1 34 7
7 7 2 10 -18 8 -15 -1 -30 4 -32 11 -3 8 6 12 26 12 32 0 41 16 19 38 -16 16
-33 15 -47 -2z m39 -17 c0 -5 -9 -9 -20 -9 -22 0 -27 16 -7 23 15 5 27 -1 27
-14z"/>
<path d="M7402 700 c1 -40 2 -41 5 -11 3 19 12 41 21 47 15 12 15 13 -5 11
-21 -1 -23 -6 -21 -47z"/>
<path d="M7465 741 c-4 -7 2 -10 16 -8 12 1 24 -4 26 -10 3 -8 -4 -13 -15 -13
-24 0 -43 -22 -33 -38 4 -7 20 -11 35 -10 25 2 27 5 24 43 -2 32 -7 41 -25 43
-11 2 -24 -2 -28 -7z m43 -53 c-7 -19 -38 -22 -38 -4 0 10 9 16 21 16 12 0 19
-5 17 -12z"/>
<path d="M7552 738 c-16 -16 -15 -53 3 -68 18 -15 47 -10 53 10 5 13 3 13 -11
1 -14 -11 -20 -11 -32 -1 -31 25 -7 67 28 49 15 -9 18 -8 15 3 -6 18 -40 22
-56 6z"/>
<path d="M7693 705 c0 -27 2 -38 4 -22 2 15 2 37 0 50 -2 12 -4 0 -4 -28z"/>
<path d="M7721 741 c-1 -20 21 -81 30 -81 4 0 14 20 22 45 9 25 12 45 7 45 -5
0 -11 -13 -15 -30 -9 -39 -20 -38 -33 3 -5 17 -10 26 -11 18z"/>
<path d="M7813 705 c0 -27 2 -38 4 -22 2 15 2 37 0 50 -2 12 -4 0 -4 -28z"/>
<path d="M7890 747 c0 -3 7 -24 15 -47 11 -32 12 -46 4 -56 -8 -10 -8 -14 0
-14 12 0 38 57 46 99 4 18 -1 13 -13 -14 l-19 -40 -7 32 c-4 18 -12 35 -17 38
-5 4 -9 4 -9 2z"/>
<path d="M8078 724 c-14 -31 -1 -57 30 -62 29 -4 49 36 33 67 -16 29 -49 27
-63 -5z m47 -20 c0 -19 -5 -29 -15 -29 -16 0 -25 28 -16 51 10 25 31 10 31
-22z"/>
<path d="M8215 741 c-4 -7 2 -10 16 -8 12 1 24 -4 26 -10 3 -8 -4 -13 -15 -13
-24 0 -43 -22 -33 -38 4 -7 20 -11 35 -10 25 2 27 5 24 43 -2 32 -7 41 -25 43
-11 2 -24 -2 -28 -7z m43 -53 c-7 -19 -38 -22 -38 -4 0 10 9 16 21 16 12 0 19
-5 17 -12z"/>
<path d="M8433 710 c2 -43 3 -45 35 -48 32 -3 32 -3 32 43 0 28 -4 44 -10 40
-5 -3 -10 -22 -10 -41 0 -39 -27 -48 -34 -11 -13 57 -14 59 -13 17z"/>
<path d="M8687 743 c-14 -14 -6 -34 18 -43 35 -13 33 -34 -2 -25 -21 5 -25 4
-17 -5 16 -17 48 -8 52 13 3 12 -4 20 -17 24 -12 3 -21 12 -21 20 0 10 6 12
21 8 15 -5 19 -4 15 4 -8 12 -39 15 -49 4z"/>
<path d="M8825 741 c-4 -7 2 -10 16 -8 12 1 24 -4 26 -10 3 -8 -4 -13 -15 -13
-24 0 -43 -22 -33 -38 4 -7 20 -11 35 -10 25 2 27 5 24 43 -2 32 -7 41 -25 43
-11 2 -24 -2 -28 -7z m43 -53 c-7 -19 -38 -22 -38 -4 0 10 9 16 21 16 12 0 19
-5 17 -12z"/>
<path d="M8963 705 c0 -27 2 -38 4 -22 2 15 2 37 0 50 -2 12 -4 0 -4 -28z"/>
<path d="M9002 738 c-16 -16 -15 -53 3 -68 18 -15 47 -10 53 10 5 13 3 13 -11
1 -14 -11 -20 -11 -32 -1 -31 25 -7 67 28 49 15 -9 18 -8 15 3 -6 18 -40 22
-56 6z"/>
<path d="M9126 715 c6 -46 21 -67 29 -42 16 52 17 53 27 20 12 -44 22 -41 35
9 14 52 8 64 -9 17 l-11 -33 -13 34 -12 35 -11 -28 c-6 -16 -11 -34 -12 -40 0
-7 -7 6 -15 28 l-13 40 5 -40z"/>
<path d="M9251 736 c-7 -8 -11 -27 -9 -43 2 -21 9 -29 27 -31 13 -2 28 1 34 7
7 7 2 10 -18 8 -15 -1 -30 4 -32 11 -3 8 6 12 26 12 32 0 41 16 19 38 -16 16
-33 15 -47 -2z m39 -17 c0 -5 -9 -9 -20 -9 -22 0 -27 16 -7 23 15 5 27 -1 27
-14z"/>
<path d="M9427 743 c-14 -14 -6 -34 18 -43 35 -13 33 -34 -2 -25 -21 5 -25 4
-17 -5 16 -17 48 -8 52 13 3 12 -4 20 -17 24 -12 3 -21 12 -21 20 0 10 6 12
21 8 15 -5 19 -4 15 4 -8 12 -39 15 -49 4z"/>
<path d="M9500 705 c0 -25 5 -45 10 -45 6 0 10 20 10 45 0 25 -4 45 -10 45 -5
0 -10 -20 -10 -45z"/>
<path d="M9602 738 c-27 -27 -7 -78 29 -78 10 0 21 5 24 10 4 7 -2 9 -18 5
-17 -5 -26 -2 -30 9 -5 12 0 16 23 16 18 0 30 5 30 13 0 16 -20 37 -35 37 -6
0 -16 -5 -23 -12z m34 -26 c-22 -5 -30 3 -21 18 5 8 11 7 22 -2 15 -12 14 -13
-1 -16z"/>
<path d="M9891 736 c-7 -8 -11 -27 -9 -43 3 -24 8 -28 33 -28 25 0 30 4 33 28
4 30 -12 57 -33 57 -7 0 -18 -6 -24 -14z m47 -40 c-2 -13 -10 -21 -23 -21 -23
0 -32 30 -14 51 16 19 41 -1 37 -30z"/>
<path d="M9971 701 c2 -34 3 -38 6 -16 10 64 42 69 45 7 1 -36 1 -36 5 -5 5
36 30 64 37 42 3 -8 7 -27 9 -44 3 -16 4 -10 3 15 l-1 45 -52 1 -53 1 1 -46z"/>
<path d="M10111 728 c-16 -43 23 -88 50 -61 6 6 1 9 -12 9 -12 -1 -24 5 -26
12 -3 8 6 12 26 12 34 0 36 2 21 31 -15 26 -49 24 -59 -3z m47 -6 c2 -7 -6
-12 -17 -12 -21 0 -27 11 -14 24 9 9 26 2 31 -12z"/>
<path d="M10331 736 c-7 -8 -11 -27 -9 -43 2 -21 9 -29 27 -31 13 -2 28 1 34
7 7 7 2 10 -18 8 -15 -1 -30 4 -32 11 -3 8 6 12 26 12 32 0 41 16 19 38 -16
16 -33 15 -47 -2z m39 -17 c0 -5 -9 -9 -20 -9 -22 0 -27 16 -7 23 15 5 27 -1
27 -14z"/>
<path d="M10415 741 c-4 -7 2 -10 16 -8 12 1 24 -4 26 -10 3 -8 -4 -13 -15
-13 -24 0 -43 -22 -33 -38 4 -7 20 -11 35 -10 25 2 27 5 24 43 -2 32 -7 41
-25 43 -11 2 -24 -2 -28 -7z m43 -53 c-7 -19 -38 -22 -38 -4 0 10 9 16 21 16
12 0 19 -5 17 -12z"/>
<path d="M10490 704 c0 -24 5 -44 10 -44 6 0 10 16 10 35 0 21 6 37 17 43 13
8 11 10 -10 10 -25 0 -27 -4 -27 -44z"/>
<path d="M10550 704 c0 -24 5 -44 10 -44 6 0 10 15 10 34 0 60 33 53 43 -9 3
-19 4 -13 3 15 -1 43 -2 45 -33 47 -33 1 -33 1 -33 -43z"/>
<path d="M10775 741 c-4 -7 2 -10 16 -8 12 1 24 -4 26 -10 3 -8 -4 -13 -15
-13 -24 0 -43 -22 -33 -38 4 -7 20 -11 35 -10 25 2 27 5 24 43 -2 32 -7 41
-25 43 -11 2 -24 -2 -28 -7z m43 -53 c-7 -19 -38 -22 -38 -4 0 10 9 16 21 16
12 0 19 -5 17 -12z"/>
<path d="M10851 741 c-1 -20 21 -81 30 -81 4 0 14 20 22 45 9 25 12 45 7 45
-5 0 -11 -13 -15 -30 -9 -39 -20 -38 -33 3 -5 17 -10 26 -11 18z"/>
<path d="M10935 741 c-4 -7 2 -10 16 -8 29 3 36 -21 7 -25 -15 -2 -24 -11 -26
-26 -3 -20 0 -22 28 -20 30 2 31 4 28 43 -2 32 -7 41 -25 43 -11 2 -24 -2 -28
-7z m45 -51 c0 -12 -28 -25 -36 -17 -9 9 6 27 22 27 8 0 14 -5 14 -10z"/>
<path d="M11122 738 c-16 -16 -15 -53 3 -68 18 -15 47 -10 53 10 5 13 3 13
-11 1 -14 -11 -20 -11 -32 -1 -31 25 -7 67 28 49 15 -9 18 -8 15 3 -6 18 -40
22 -56 6z"/>
<path d="M11201 700 c2 -34 3 -37 6 -15 3 17 12 38 20 47 14 15 13 17 -6 15
-18 -1 -21 -7 -20 -47z"/>
<path d="M11263 705 c0 -27 2 -38 4 -22 2 15 2 37 0 50 -2 12 -4 0 -4 -28z"/>
<path d="M11301 685 c1 -33 4 -50 6 -38 3 14 9 20 19 16 20 -7 44 15 44 42 0
28 -19 45 -48 42 -20 -1 -22 -6 -21 -62z m54 6 c-9 -29 -39 -23 -43 8 -2 13 2
27 10 32 19 12 41 -14 33 -40z"/>
<path d="M11480 743 c0 -21 22 -83 29 -83 5 0 12 15 16 33 l7 32 11 -32 c12
-40 23 -42 31 -5 4 15 9 36 13 47 3 14 2 17 -5 10 -6 -5 -12 -21 -14 -35 -4
-24 -5 -24 -20 10 -17 37 -15 38 -35 -20 -4 -10 -9 -3 -15 18 -8 29 -18 43
-18 25z"/>
<path d="M11613 705 c0 -27 2 -38 4 -22 2 15 2 37 0 50 -2 12 -4 0 -4 -28z"/>
<path d="M11833 710 c2 -43 3 -45 35 -48 32 -3 32 -3 32 43 0 28 -4 44 -10 40
-5 -3 -10 -22 -10 -41 0 -39 -27 -48 -34 -11 -13 57 -14 59 -13 17z"/>
<path d="M11927 743 c-15 -14 -6 -34 19 -43 30 -12 22 -34 -9 -24 -17 5 -19 3
-11 -6 16 -16 48 -9 52 13 2 11 -6 20 -23 27 -30 11 -24 34 7 24 14 -4 18 -2
14 5 -8 12 -39 15 -49 4z"/>
<path d="M12050 740 c-12 -8 -10 -10 9 -8 31 4 40 -19 9 -24 -15 -2 -23 -10
-23 -23 0 -16 7 -20 33 -22 28 -1 32 2 32 24 0 51 -27 75 -60 53z m40 -49 c0
-14 -18 -23 -30 -16 -6 4 -8 11 -5 16 8 12 35 12 35 0z"/>
<path d="M12132 700 c1 -40 2 -41 5 -10 8 60 43 64 43 4 0 -19 5 -34 10 -34
13 0 13 46 0 71 -7 12 -20 18 -35 17 -23 -2 -25 -6 -23 -48z"/>
<path d="M5740 729 c0 -5 5 -7 10 -4 6 3 10 8 10 11 0 2 -4 4 -10 4 -5 0 -10
-5 -10 -11z"/>
<path d="M3340 670 c0 -5 5 -10 10 -10 6 0 10 5 10 10 0 6 -4 10 -10 10 -5 0
-10 -4 -10 -10z"/>
<path d="M3757 674 c-4 -4 -7 -17 -7 -28 1 -19 1 -20 11 -3 11 19 8 43 -4 31z"/>
<path d="M5740 670 c0 -5 5 -10 10 -10 6 0 10 5 10 10 0 6 -4 10 -10 10 -5 0
-10 -4 -10 -10z"/>
<path d="M8601 673 c0 -6 -4 -20 -7 -30 -5 -14 -4 -15 5 -7 7 7 11 20 8 30 -3
11 -5 14 -6 7z"/>
<path d="M10201 673 c0 -6 -4 -20 -7 -30 -5 -14 -4 -15 5 -7 7 7 11 20 8 30
-3 11 -5 14 -6 7z"/>
<path d="M1023 540 c0 -36 1 -57 4 -47 6 21 17 22 33 2 7 -9 15 -13 18 -10 3
3 -3 14 -13 25 -17 19 -17 21 1 43 18 21 17 21 -8 -2 l-27 -23 -4 38 c-2 23
-4 13 -4 -26z"/>
<path d="M1280 540 c0 -33 4 -60 10 -60 6 0 10 15 10 34 0 60 35 56 43 -4 3
-27 4 -25 3 10 -1 40 -4 45 -23 44 -16 0 -23 5 -23 18 0 10 -4 18 -10 18 -6 0
-10 -27 -10 -60z"/>
<path d="M1681 545 c-1 -60 -1 -61 29 -63 25 -2 31 2 36 24 8 33 -6 59 -32 59
-10 0 -22 9 -26 20 -3 11 -6 -7 -7 -40z m54 -34 c-9 -29 -39 -23 -43 8 -2 13
2 27 10 32 19 12 41 -14 33 -40z"/>
<path d="M2128 583 c-2 -10 -1 -38 3 -63 6 -42 6 -43 7 -9 1 19 7 40 14 47 9
9 9 12 -1 12 -11 0 -11 3 -1 15 10 12 10 15 -3 15 -8 0 -16 -8 -19 -17z"/>
<path d="M2273 540 c0 -36 2 -50 4 -32 2 17 2 47 0 65 -2 17 -4 3 -4 -33z"/>
<path d="M2561 545 c-1 -60 -1 -61 29 -63 25 -2 31 2 36 24 8 33 -6 59 -32 59
-10 0 -22 9 -26 20 -3 11 -6 -7 -7 -40z m54 -34 c-9 -29 -39 -23 -43 8 -2 13
2 27 10 32 19 12 41 -14 33 -40z"/>
<path d="M1229 578 c-5 -51 9 -98 29 -98 13 0 14 2 4 9 -8 5 -13 23 -12 42 3
49 1 59 -10 59 -5 0 -11 -6 -11 -12z"/>
<path d="M2038 578 c-8 -24 8 -92 22 -96 12 -4 13 -2 3 9 -15 15 -17 66 -4 71
5 2 3 8 -4 15 -10 9 -15 9 -17 1z"/>
<path d="M2769 578 c-5 -51 9 -98 29 -98 13 0 14 2 4 9 -8 5 -13 23 -12 42 3
49 1 59 -10 59 -5 0 -11 -6 -11 -12z"/>
<path d="M801 521 l2 -46 6 39 c7 45 28 59 35 24 3 -13 7 -32 9 -43 3 -11 5
-3 6 17 1 35 15 57 28 44 3 -3 10 -23 14 -43 l7 -38 -1 45 -2 45 -52 1 -53 1
1 -46z"/>
<path d="M940 560 c-12 -8 -10 -10 9 -8 31 4 40 -19 9 -24 -15 -2 -23 -10 -23
-23 0 -16 7 -20 33 -22 28 -1 32 2 32 24 0 51 -27 75 -60 53z m40 -49 c0 -14
-18 -23 -30 -16 -6 4 -8 11 -5 16 8 12 35 12 35 0z"/>
<path d="M1101 548 c-16 -43 23 -88 50 -61 6 6 1 9 -12 9 -12 -1 -24 5 -26 12
-3 8 6 12 26 12 34 0 36 2 21 31 -15 26 -49 24 -59 -3z m47 -6 c2 -7 -6 -12
-17 -12 -21 0 -27 11 -14 24 9 9 26 2 31 -12z"/>
<path d="M1382 558 c-16 -16 -15 -53 3 -68 33 -28 71 12 54 58 -9 24 -38 29
-57 10z m43 -34 c0 -19 -6 -30 -17 -32 -21 -4 -34 34 -17 54 18 22 34 11 34
-22z"/>
<path d="M1472 557 c-13 -15 -4 -31 21 -40 28 -10 21 -30 -9 -23 -17 5 -23 3
-19 -4 9 -15 52 -12 58 4 6 16 -11 36 -30 36 -7 0 -13 7 -13 16 0 11 6 14 21
9 15 -5 19 -4 15 4 -10 15 -31 14 -44 -2z"/>
<path d="M1548 545 c-19 -42 25 -86 55 -56 9 9 5 11 -12 9 -13 -2 -26 3 -28
10 -3 8 6 12 26 12 27 0 30 2 22 23 -12 33 -48 34 -63 2z m50 -3 c2 -7 -6 -12
-17 -12 -21 0 -27 11 -14 24 9 9 26 2 31 -12z"/>
<path d="M1781 556 c-7 -8 -11 -27 -9 -43 2 -21 9 -29 27 -31 13 -2 28 1 34 7
7 7 2 10 -18 8 -15 -1 -30 4 -32 11 -3 8 6 12 26 12 32 0 41 16 19 38 -16 16
-33 15 -47 -2z m39 -17 c0 -5 -9 -9 -20 -9 -22 0 -27 16 -7 23 15 5 27 -1 27
-14z"/>
<path d="M1865 561 c-4 -7 2 -10 16 -8 12 1 24 -4 26 -10 3 -8 -4 -13 -15 -13
-24 0 -43 -22 -33 -38 4 -7 20 -11 35 -10 25 2 27 5 24 43 -2 32 -7 41 -25 43
-11 2 -24 -2 -28 -7z m43 -53 c-7 -19 -38 -22 -38 -4 0 10 9 16 21 16 12 0 19
-5 17 -12z"/>
<path d="M1942 528 c3 -41 4 -43 36 -44 32 -1 32 -1 31 45 l-2 46 -6 -40 c-4
-27 -12 -41 -23 -43 -14 -3 -18 4 -18 32 0 19 -5 38 -11 41 -7 5 -9 -8 -7 -37z"/>
<path d="M2093 525 c0 -27 2 -38 4 -22 2 15 2 37 0 50 -2 12 -4 0 -4 -28z"/>
<path d="M2183 530 c2 -43 3 -45 35 -48 32 -3 32 -3 32 43 0 28 -4 44 -10 40
-5 -3 -10 -22 -10 -41 0 -39 -27 -48 -34 -11 -13 57 -14 59 -13 17z"/>
<path d="M2352 533 c13 -51 25 -62 34 -29 7 30 24 35 24 7 0 -21 15 -36 23
-24 3 5 8 26 11 48 l5 40 -13 -40 -13 -40 -8 38 c-4 20 -11 37 -15 37 -4 0
-12 -17 -17 -37 l-10 -38 -8 38 c-4 20 -11 37 -15 37 -5 0 -4 -17 2 -37z"/>
<path d="M2471 548 c-16 -43 23 -88 50 -61 6 6 1 9 -12 9 -12 -1 -24 5 -26 12
-3 8 6 12 26 12 34 0 36 2 21 31 -15 26 -49 24 -59 -3z m47 -6 c2 -7 -6 -12
-17 -12 -21 0 -27 11 -14 24 9 9 26 2 31 -12z"/>
<path d="M2657 563 c-15 -14 -6 -34 19 -43 30 -12 22 -34 -9 -24 -17 5 -19 3
-11 -6 16 -16 48 -9 52 13 2 11 -6 20 -23 27 -30 11 -24 34 7 24 14 -4 18 -2
14 5 -8 12 -39 15 -49 4z"/>
<path d="M2733 525 c0 -27 2 -38 4 -22 2 15 2 37 0 50 -2 12 -4 0 -4 -28z"/>
<path d="M2831 556 c-7 -8 -11 -27 -9 -43 2 -21 9 -29 27 -31 13 -2 28 1 34 7
7 7 2 10 -18 8 -15 -1 -30 4 -32 11 -3 8 6 12 26 12 32 0 41 16 19 38 -16 16
-33 15 -47 -2z m39 -17 c0 -5 -9 -9 -20 -9 -22 0 -27 16 -7 23 15 5 27 -1 27
-14z"/>
<path d="M2917 563 c-15 -14 -6 -34 19 -43 30 -12 22 -34 -9 -24 -17 5 -19 3
-11 -6 16 -16 48 -9 52 13 2 11 -6 20 -23 27 -30 11 -24 34 7 24 14 -4 18 -2
14 5 -8 12 -39 15 -49 4z"/>
<path d="M2990 490 c0 -5 5 -10 10 -10 6 0 10 5 10 10 0 6 -4 10 -10 10 -5 0
-10 -4 -10 -10z"/>
<path d="M11856 374 c-13 -12 -16 -39 -16 -125 0 -61 5 -119 10 -130 10 -18
26 -19 448 -19 327 0 441 3 450 12 8 8 12 53 12 135 0 111 -2 123 -19 133 -13
6 -171 10 -445 10 -373 0 -426 -2 -440 -16z m879 -129 l0 -120 -435 0 -435 0
-3 109 c-1 61 0 116 2 123 5 11 86 13 438 11 l433 -3 0 -120z"/>
<path d="M11953 250 c0 -30 2 -45 4 -32 3 15 11 22 28 22 17 0 25 -7 28 -22 2
-13 4 2 4 32 0 30 -2 45 -4 33 -3 -16 -11 -23 -28 -23 -17 0 -25 7 -28 23 -2
12 -4 -3 -4 -33z"/>
<path d="M12260 250 c0 -49 1 -50 30 -50 28 0 50 22 50 49 0 18 -39 51 -60 51
-17 0 -20 -7 -20 -50z m55 -5 c0 -23 -5 -31 -22 -33 -20 -3 -23 1 -23 33 0 32
3 36 23 33 17 -2 22 -10 22 -33z"/>
<path d="M12573 250 c0 -30 2 -43 4 -27 2 15 2 39 0 55 -2 15 -4 2 -4 -28z"/>
<path d="M12110 281 c0 -5 -9 -11 -21 -14 -16 -4 -20 -12 -17 -34 2 -22 9 -29
31 -31 26 -3 27 -2 27 42 0 25 -4 46 -10 46 -5 0 -10 -4 -10 -9z m3 -34 c3 -8
1 -20 -4 -28 -11 -19 -34 3 -26 25 8 20 23 21 30 3z"/>
<path d="M12428 280 c-5 -17 3 -80 11 -80 7 0 6 79 -2 86 -3 3 -7 0 -9 -6z"/>
<path d="M12043 235 c0 -22 2 -30 4 -17 2 12 2 30 0 40 -3 9 -5 -1 -4 -23z"/>
<path d="M12150 255 c-16 -19 -3 -55 20 -55 10 0 21 4 24 9 4 5 -3 7 -14 4
-11 -3 -20 0 -20 6 0 6 11 11 25 11 27 0 32 9 13 28 -16 16 -33 15 -48 -3z
m40 -5 c0 -5 -7 -10 -15 -10 -8 0 -15 5 -15 10 0 6 7 10 15 10 8 0 15 -4 15
-10z"/>
<path d="M12354 256 c-15 -38 22 -74 49 -47 7 7 4 8 -10 5 -12 -3 -24 -1 -27
5 -5 7 3 11 19 11 20 0 26 4 23 18 -4 22 -46 29 -54 8z m41 -6 c3 -5 -1 -10
-9 -10 -9 0 -16 5 -16 10 0 6 4 10 9 10 6 0 13 -4 16 -10z"/>
<path d="M12465 260 c-5 -9 -1 -10 14 -5 11 3 21 2 21 -3 0 -5 -9 -12 -21 -15
-29 -8 -18 -32 15 -33 24 -1 27 2 24 30 -2 23 -9 32 -25 34 -11 2 -24 -2 -28
-8z m40 -40 c-3 -5 -13 -10 -21 -10 -8 0 -12 5 -9 10 3 6 13 10 21 10 8 0 12
-4 9 -10z"/>
<path d="M12543 235 c0 -22 2 -30 4 -17 2 12 2 30 0 40 -3 9 -5 -1 -4 -23z"/>
<path d="M12600 256 c0 -7 10 -21 23 -30 l22 -17 -22 5 c-13 2 -23 0 -23 -5 0
-13 38 -11 46 2 4 7 -4 20 -17 31 l-24 19 24 -6 c16 -5 21 -4 17 4 -10 16 -46
14 -46 -3z"/>
</g>
</svg>
