<svg version="1.1" id="Layer_1" xmlns="http://www.w3.org/2000/svg" xmlns:xlink="http://www.w3.org/1999/xlink" x="0px" y="0px"
	 height="32px" width="32px" viewBox="0 0 720 880" enable-background="new 0 0 720 880" xml:space="preserve">
<path fill="#000000" opacity="1.000000" stroke="none" 
	d="
M1.000000,823.468628 
	C7.352159,807.300659 14.485271,791.887573 12.227178,774.072571 
	C11.420924,767.711670 12.443695,761.105042 12.769958,754.617554 
	C13.301473,744.048706 18.920904,737.670044 29.276342,735.743103 
	C33.212105,735.010681 37.176250,734.659119 41.194973,734.677185 
	C57.027367,734.748291 72.860565,734.669617 88.692619,734.774170 
	C96.258926,734.824097 103.034561,732.626953 109.526474,728.824463 
	C136.855118,712.817322 162.856415,694.712463 189.870483,678.202820 
	C209.814697,666.014099 231.091095,658.131592 254.360413,655.634521 
	C258.812286,655.156738 263.199707,654.107239 267.638733,653.475281 
	C284.814514,651.030212 294.396027,639.878723 300.634979,624.850525 
	C307.472351,608.380737 312.430359,591.233032 318.762207,574.581909 
	C327.910492,550.524414 338.854279,527.350647 353.750305,506.265839 
	C357.669891,500.717804 358.630402,495.522095 357.543549,488.690613 
	C353.307434,462.064117 355.426605,436.324158 369.890137,412.493225 
	C376.617798,401.408234 382.957825,389.978668 386.661469,377.404449 
	C391.840393,359.821564 390.523254,342.212341 386.495575,324.627411 
	C383.070190,309.672150 378.097656,295.164551 373.289185,280.641327 
	C367.775269,263.987488 363.677979,247.123322 361.679993,229.686874 
	C360.512177,219.495346 356.669434,217.858902 347.670074,223.419495 
	C329.268036,234.789886 309.550232,243.191742 289.000000,249.712555 
	C284.418610,251.166260 279.656830,252.155716 274.909180,252.943634 
	C271.860870,253.449524 270.528564,254.914642 270.375580,257.828827 
	C269.304016,278.235596 262.623901,297.199097 255.771851,316.193848 
	C248.191971,337.206238 242.810104,358.840698 239.494736,380.955750 
	C238.727921,386.070801 239.767029,390.043549 244.799500,393.191223 
	C254.725174,399.399414 257.868774,411.552704 253.167206,422.247406 
	C251.946915,425.023224 251.414322,427.952576 251.296524,430.986115 
	C250.864899,442.102539 247.124054,446.101318 235.903168,447.223907 
	C226.282776,448.186432 216.654968,448.586792 207.005951,447.335205 
	C203.427032,446.870972 200.799164,445.333130 198.890900,442.267151 
	C191.651306,430.635406 193.244232,418.360901 196.194702,406.004333 
	C197.542633,400.359161 200.187943,395.109131 200.804932,389.202698 
	C202.590500,372.109589 202.367722,354.944641 203.049896,337.811523 
	C204.295563,306.526733 206.998795,275.443268 214.658386,244.904221 
	C219.163620,226.941727 228.768219,213.783264 245.506439,205.500763 
	C257.483490,199.574219 268.109009,191.367432 278.649719,183.213074 
	C294.382965,171.041687 311.776794,162.146835 330.556610,155.844040 
	C341.659851,152.117615 352.341949,147.573914 362.040863,140.888382 
	C372.589905,133.616837 384.615326,131.373993 397.115997,130.944290 
	C401.278564,130.801224 405.456421,130.684341 409.613434,130.868454 
	C434.489441,131.970276 448.918701,118.164848 452.823517,94.523384 
	C454.047089,87.115219 452.580688,80.265839 451.059906,73.365585 
	C447.300232,56.306660 448.797241,40.024277 456.594727,24.287888 
	C461.857788,13.666244 470.171082,6.805889 481.213806,2.974454 
	C482.626221,2.484381 484.013641,1.922090 485.706299,1.196630 
	C494.687561,1.000000 503.375122,1.000000 512.877808,1.159730 
	C532.844788,3.166852 546.758972,12.728919 555.341248,29.897820 
	C560.378723,39.975361 564.839111,50.726841 562.496460,61.955334 
	C560.313782,72.416985 558.525635,82.216576 562.101013,92.741875 
	C564.306396,99.234169 563.179565,100.206818 556.406616,101.086441 
	C553.332336,101.485710 552.188477,102.532463 551.957520,105.697098 
	C551.506836,111.873306 551.703674,118.279587 547.592712,123.648026 
	C546.838745,124.632538 546.423035,126.160271 546.460449,127.419144 
	C546.662781,134.225662 542.436890,136.413284 535.290710,136.018417 
	C531.137756,135.788895 526.989502,135.319122 522.836548,135.287643 
	C518.264771,135.252960 516.212708,138.263931 517.805908,142.593475 
	C518.421448,144.266190 519.568542,145.799393 520.697998,147.217331 
	C526.151611,154.063873 532.769104,159.759430 540.043945,164.438461 
	C555.486267,174.370819 563.252747,188.990585 566.007385,206.417206 
	C567.244751,214.245499 570.563477,220.025604 576.567322,224.825134 
	C587.661316,233.693817 597.819885,243.527893 606.551697,254.787399 
	C607.616577,256.160583 608.512573,257.937164 610.781250,258.292480 
	C611.452515,257.706055 612.323242,257.159607 612.914185,256.396545 
	C619.792603,247.514526 628.002136,239.943268 636.556824,232.769104 
	C648.740479,222.551712 658.459656,210.525192 665.440979,196.183273 
	C668.008667,190.908432 668.606140,185.966064 666.875183,180.341049 
	C664.444458,172.441605 664.020447,164.332718 665.775879,156.149673 
	C666.825989,151.254639 669.207825,147.438950 673.921265,145.540726 
	C676.517578,144.495087 678.255371,142.855713 679.931763,140.637375 
	C682.801636,136.839661 686.402039,133.326752 691.747864,135.311600 
	C702.631104,139.352386 711.731079,145.846130 718.051758,155.843277 
	C720.020935,158.957855 720.890259,162.324677 720.102844,165.865479 
	C718.201050,174.417343 715.240784,182.569412 708.834778,188.876678 
	C701.903076,195.701477 697.382385,203.842453 694.086121,212.920410 
	C687.950562,229.817780 681.811707,246.721054 673.434082,262.708374 
	C662.434021,283.700287 647.784058,301.526215 628.730225,315.735443 
	C622.074646,320.698761 615.517212,322.569153 607.427917,318.929443 
	C585.183167,308.920593 563.744934,297.574677 544.151184,282.940125 
	C541.680969,281.095123 539.600281,278.589020 536.127136,277.924133 
	C534.265930,281.170654 533.917908,284.669464 533.278076,288.047363 
	C529.348389,308.793304 525.617981,329.577911 521.557556,350.297974 
	C517.110657,372.990143 510.473083,395.159607 505.113434,417.635590 
	C503.242401,425.481750 503.469910,425.535034 511.446045,427.669220 
	C541.078247,435.597717 570.132935,445.186768 598.317017,457.400269 
	C621.937073,467.635956 643.822144,481.049469 666.109985,493.724976 
	C678.259644,500.634674 690.996216,506.582367 702.150513,515.174377 
	C708.125183,519.776550 711.401428,525.740356 712.459167,533.290466 
	C713.870972,543.368469 713.264343,553.323547 710.722107,563.009888 
	C702.698608,593.580872 694.091187,623.998718 686.077393,654.572205 
	C676.254089,692.049011 664.550659,729.098694 658.850037,767.547791 
	C655.977356,786.923462 659.103821,804.969910 672.756470,820.280212 
	C679.133179,827.431152 686.176453,833.746765 693.870789,839.308411 
	C702.356934,845.442383 711.002991,851.422668 721.000000,855.000000 
	C721.000000,863.616455 721.000000,872.232971 721.000000,881.000000 
	C704.646057,881.000000 688.291687,881.000000 671.219482,880.751831 
	C661.015442,876.908691 651.594971,873.126587 642.027405,869.763062 
	C628.056335,864.851624 613.840210,860.610107 599.992310,855.384155 
	C589.075134,851.264282 584.690857,842.093933 586.355286,830.598450 
	C587.471924,822.885986 590.038635,815.712097 593.600464,808.924072 
	C610.274109,777.147644 614.995117,742.981323 613.482605,707.734741 
	C612.482971,684.439636 610.866577,661.201538 612.632507,637.864319 
	C614.188599,617.299133 619.367615,597.908508 629.626648,579.950562 
	C630.854004,577.802185 632.225464,575.694519 632.112549,573.067627 
	C630.614563,571.685974 628.770569,571.444275 626.985046,571.187378 
	C611.033997,568.892639 595.108826,566.376831 579.114258,564.435852 
	C556.830200,561.731689 534.542114,559.204895 512.499512,554.773376 
	C499.068878,552.073303 486.190430,547.548706 473.062653,543.853455 
	C468.791412,542.651184 466.069580,543.168091 463.779785,547.609619 
	C457.217407,560.338745 450.088379,572.774475 443.270691,585.373535 
	C429.167389,611.436462 411.171570,634.335205 388.521271,653.552185 
	C374.172333,665.726135 359.202698,677.287354 346.623016,691.351440 
	C337.329285,701.741882 325.977997,707.886658 312.732239,711.253784 
	C302.727051,713.797180 292.837463,716.792908 283.214325,720.535461 
	C250.760712,733.156799 217.728851,744.023132 184.264648,753.620850 
	C158.513565,761.006409 132.329880,766.924072 107.107742,776.105286 
	C94.174843,780.813049 81.482452,786.346069 72.659721,797.394775 
	C54.371952,820.296570 35.961090,843.168945 23.235756,869.887146 
	C20.972931,874.638245 18.144779,878.892090 13.000000,881.000000 
	C12.555555,881.000000 12.111111,881.000000 11.082673,880.776855 
	C5.802555,878.450378 3.787991,874.437988 2.793447,869.708252 
	C2.183613,866.808044 1.597028,863.902893 0.999995,861.000000 
	C1.000000,848.645752 1.000000,836.291565 1.000000,823.468628 
z"/>
</svg>